<?xml version="1.0" standalone="no"?>
<!DOCTYPE svg PUBLIC "-//W3C//DTD SVG 20010904//EN"
 "http://www.w3.org/TR/2001/REC-SVG-20010904/DTD/svg10.dtd">
<svg version="1.0" xmlns="http://www.w3.org/2000/svg"
 width="1125.000000pt" height="1125.000000pt" viewBox="0 0 1125.000000 1125.000000"
 preserveAspectRatio="xMidYMid meet">
<metadata>
Created by potrace 1.11, written by Peter Selinger 2001-2013
</metadata>
<g transform="translate(0.000000,1125.000000) scale(0.100000,-0.100000)"
fill="#000000" stroke="none">
<path d="M5410 10288 c0 -8 3 -18 7 -22 4 -3 8 -12 9 -19 1 -7 5 -29 9 -49 4
-22 3 -38 -2 -38 -5 0 -16 -11 -23 -25 -7 -13 -17 -22 -22 -19 -5 3 -2 17 6
30 17 25 22 74 8 74 -5 0 -17 -8 -28 -19 -33 -30 -58 -34 -84 -11 -16 14 -26
17 -30 9 -8 -12 -88 -3 -130 14 -31 13 -102 28 -107 23 -3 -3 7 -16 22 -29 35
-29 28 -42 -37 -72 -27 -13 -45 -26 -39 -30 6 -3 11 -4 11 -2 0 3 19 0 43 -7
23 -7 57 -11 75 -9 17 1 32 -1 32 -6 0 -12 -67 -64 -103 -79 -15 -6 -31 -20
-34 -29 -10 -26 -34 -52 -82 -89 -46 -35 -96 -49 -71 -19 8 9 9 15 2 15 -6 0
-17 -8 -24 -17 -7 -10 -20 -19 -28 -21 -22 -4 -39 -31 -35 -53 3 -16 0 -18
-20 -13 -32 8 -60 -9 -75 -46 -9 -23 -19 -30 -39 -30 -24 0 -77 -29 -122 -68
-10 -9 -29 -17 -41 -19 -13 -1 -36 -5 -53 -9 -28 -7 -29 -6 -15 11 13 17 13
18 0 10 -35 -20 -41 -27 -29 -42 9 -10 8 -18 -5 -31 -20 -23 -23 -50 -3 -34 8
7 18 7 27 1 13 -8 13 -10 0 -19 -8 -5 -23 -10 -32 -10 -10 0 -18 -6 -18 -12 0
-7 -11 -26 -25 -42 -14 -16 -25 -33 -25 -38 0 -4 -4 -8 -10 -8 -15 0 6 46 35
78 28 30 28 31 16 50 -6 11 -12 10 -26 -5 -10 -10 -20 -17 -22 -15 -14 10 -21
-1 -11 -18 11 -17 8 -24 -17 -50 -24 -25 -27 -33 -16 -40 11 -6 8 -15 -17 -39
-17 -17 -37 -31 -46 -31 -8 0 -27 -5 -43 -12 -15 -6 -35 -12 -43 -14 -8 -2
-16 -8 -18 -13 -6 -17 -32 -13 -32 4 0 19 -19 20 -26 1 -3 -8 -17 -17 -31 -21
-20 -5 -22 -9 -13 -20 14 -17 -3 -29 -30 -20 -11 4 -20 2 -20 -4 0 -5 -9 -13
-20 -16 -33 -10 -50 -34 -50 -70 0 -31 -28 -95 -41 -95 -4 0 -12 7 -19 15 -15
18 -52 20 -49 3 4 -33 -4 -46 -39 -63 -48 -24 -79 -62 -63 -78 7 -7 16 -13 21
-13 6 -1 15 -2 21 -3 18 -2 -10 -31 -30 -31 -9 0 -29 -7 -45 -15 -19 -10 -33
-12 -41 -5 -8 7 -21 -3 -44 -36 -18 -25 -42 -54 -53 -64 -11 -10 -18 -26 -15
-34 4 -10 -1 -16 -15 -18 -29 -4 -35 -28 -9 -35 29 -8 26 -32 -6 -44 -15 -5
-42 -25 -60 -44 -27 -28 -30 -35 -18 -45 13 -11 12 -16 -4 -39 -10 -14 -26
-42 -35 -61 -9 -19 -27 -48 -41 -64 -14 -16 -25 -33 -25 -38 0 -16 31 -21 56
-10 31 15 30 4 -2 -39 -40 -53 -62 -102 -59 -129 1 -14 3 -32 4 -40 1 -11 7
-8 21 10 10 14 22 22 25 18 11 -11 -5 -48 -21 -48 -8 0 -19 -11 -24 -25 -5
-14 -14 -25 -20 -25 -5 0 -10 -7 -10 -15 0 -8 -3 -15 -8 -15 -11 0 -42 -76
-42 -103 0 -37 12 -67 25 -67 7 0 12 13 12 33 -1 43 12 89 22 83 5 -3 12 -22
15 -41 8 -39 29 -46 46 -14 16 29 21 59 9 59 -5 0 -9 5 -9 10 0 6 6 10 14 10
8 0 15 -14 18 -35 2 -19 1 -35 -2 -35 -3 0 -6 -10 -7 -22 0 -13 -4 -31 -8 -40
-13 -31 9 -19 33 17 22 34 42 46 42 25 0 -6 -9 -23 -21 -39 -11 -15 -22 -34
-23 -42 -2 -8 -11 -32 -21 -54 -10 -22 -18 -52 -19 -67 -1 -30 -10 -36 -23
-15 -13 22 -12 40 5 69 13 23 14 32 4 48 -6 11 -12 27 -12 36 0 24 -34 13 -38
-13 -2 -14 3 -23 17 -28 25 -7 27 -23 6 -31 -8 -4 -15 -14 -15 -25 0 -27 -21
-69 -36 -69 -13 0 -8 37 7 46 10 6 12 54 3 54 -4 0 -13 -8 -20 -17 -13 -17
-14 -16 -11 7 1 14 6 31 11 38 11 17 3 24 -18 16 -26 -10 -46 -56 -34 -78 7
-13 7 -26 -1 -43 -15 -33 -15 -51 1 -35 7 7 16 12 21 12 5 0 -7 -19 -27 -41
-39 -47 -39 -75 0 -31 l25 27 -6 -60 c-3 -36 -15 -76 -30 -101 -25 -42 -32
-70 -17 -60 16 10 7 -120 -11 -147 -15 -23 -15 -26 -1 -20 14 5 15 3 5 -15 -6
-12 -9 -44 -7 -73 2 -28 0 -65 -5 -82 -5 -18 -5 -35 1 -42 6 -7 6 -24 0 -46
-6 -19 -10 -81 -11 -139 0 -82 3 -107 14 -114 13 -8 13 -15 2 -47 -11 -29 -11
-41 -1 -55 6 -11 13 -32 15 -49 1 -16 8 -34 15 -40 7 -5 18 -20 24 -31 8 -14
19 -20 35 -19 30 4 40 -3 53 -35 9 -19 7 -34 -9 -69 -11 -26 -15 -46 -9 -50
12 -8 7 -40 -9 -55 -9 -8 -10 -8 -5 2 4 6 2 12 -3 12 -6 0 -11 -10 -11 -22 0
-49 -15 -51 -59 -8 -22 22 -41 45 -41 50 0 5 11 30 25 56 14 25 23 50 20 54
-7 11 -62 18 -76 9 -9 -5 -8 -14 5 -34 10 -15 16 -29 14 -31 -2 -2 -35 -6 -74
-9 -38 -3 -78 -7 -89 -9 -11 -3 -23 -5 -27 -5 -13 -2 -59 -68 -64 -92 -10 -48
-23 -125 -28 -164 -3 -22 -8 -60 -12 -85 -11 -88 -10 -229 3 -302 7 -40 15
-86 18 -103 2 -16 12 -64 20 -105 9 -41 16 -82 17 -90 1 -26 38 -214 48 -246
6 -17 12 -40 14 -50 3 -10 16 -45 30 -76 26 -59 33 -63 91 -59 26 2 97 33 90
39 -3 3 0 10 5 17 5 6 12 41 15 76 7 91 10 102 28 113 11 7 20 6 31 -3 21 -17
20 -40 -1 -63 -15 -17 -15 -18 2 -18 13 0 15 -5 9 -17 -12 -28 -10 -78 3 -78
7 0 17 -5 24 -12 8 -8 6 -16 -10 -32 -12 -12 -21 -24 -21 -27 0 -3 -9 -19 -21
-36 -34 -47 -17 -42 38 12 50 49 75 60 88 40 4 -6 11 -8 16 -5 14 9 11 -8 -5
-31 -8 -11 -16 -29 -18 -39 -6 -38 -83 -81 -158 -90 -45 -5 -77 -18 -88 -35
-23 -37 15 -92 90 -131 42 -21 73 -25 143 -14 l50 7 1 -59 c1 -32 4 -67 7 -78
3 -11 6 -22 6 -24 1 -2 8 2 16 9 15 13 20 5 16 -27 -1 -7 3 -13 9 -13 5 0 10
-8 10 -17 0 -15 -2 -16 -10 -3 -5 8 -12 11 -16 8 -9 -10 9 -103 21 -103 18 0
35 -16 29 -26 -4 -6 -11 -6 -19 1 -25 21 -23 -5 11 -110 33 -104 52 -150 67
-161 4 -3 10 -21 12 -40 6 -46 47 -129 63 -129 9 0 11 -7 7 -20 -5 -14 -2 -20
9 -20 10 0 16 -9 16 -22 0 -12 3 -18 7 -15 7 8 35 -29 59 -80 9 -18 20 -33 25
-33 4 0 34 -32 65 -71 31 -40 65 -74 75 -76 10 -3 21 -13 24 -23 3 -10 12 -20
19 -23 16 -6 79 -129 90 -172 4 -16 16 -54 28 -83 16 -42 18 -55 8 -67 -10
-12 -10 -18 0 -30 7 -9 10 -18 7 -22 -4 -3 -2 -14 3 -24 7 -12 7 -20 0 -24 -6
-4 -8 -10 -6 -14 4 -7 13 -68 21 -156 4 -37 17 -115 30 -177 4 -14 1 -29 -5
-33 -8 -5 -8 -11 1 -21 6 -7 16 -11 22 -7 6 4 7 1 2 -7 -13 -21 -15 -149 -3
-179 6 -14 11 -88 12 -165 2 -122 4 -140 20 -152 19 -13 19 -14 0 -20 -25 -10
-35 -25 -28 -46 10 -34 -22 -19 -43 20 -56 101 -70 210 -74 584 -2 158 -4 163
-51 135 -39 -22 -59 -41 -109 -104 -53 -66 -83 -127 -118 -238 -37 -117 -33
-111 -210 -273 -158 -144 -172 -165 -236 -357 -15 -44 -29 -82 -32 -85 -13
-13 4 69 20 99 29 53 12 63 -92 58 -94 -5 -118 -10 -152 -27 -12 -7 -53 -23
-92 -36 -85 -29 -169 -75 -206 -113 -16 -16 -39 -32 -52 -36 -21 -7 -41 -23
-126 -102 -13 -13 -31 -23 -39 -23 -24 0 -190 -77 -224 -104 -8 -7 -27 -18
-42 -26 -16 -7 -28 -17 -28 -22 0 -4 -6 -8 -13 -8 -20 0 -57 -43 -66 -76 -5
-20 -15 -30 -32 -32 -13 -2 -29 -8 -36 -13 -7 -7 -13 -5 -16 3 -4 10 -6 10 -6
1 -1 -7 -17 -19 -37 -28 -23 -10 -40 -25 -47 -45 -11 -28 -37 -42 -37 -20 0 6
-7 10 -17 10 -14 0 -14 2 2 20 10 11 13 20 7 20 -18 0 -66 -21 -73 -32 -10
-17 -134 -68 -137 -57 -6 16 18 37 56 50 20 6 64 24 97 39 33 15 81 35 107 44
25 9 52 24 58 32 7 7 20 14 30 14 10 0 23 7 30 15 15 18 7 19 -45 3 -52 -15
-48 -14 -65 -20 -8 -3 -51 -15 -94 -27 -75 -21 -114 -36 -210 -82 -22 -11 -44
-19 -48 -19 -18 0 -194 -89 -207 -104 -9 -11 -18 -13 -30 -7 -20 11 -129 -25
-189 -63 -23 -14 -47 -26 -54 -26 -7 0 -28 -9 -46 -20 -18 -11 -38 -20 -45
-20 -7 0 -27 -13 -45 -30 -18 -16 -40 -30 -48 -30 -20 0 -17 -18 5 -30 26 -14
28 -13 36 13 7 21 7 21 12 2 3 -11 14 -31 25 -45 19 -24 19 -25 1 -28 -36 -5
-93 -25 -93 -33 0 -4 -16 -13 -34 -19 -19 -6 -62 -24 -96 -41 -33 -16 -64 -29
-69 -29 -5 0 -22 -7 -37 -15 -16 -8 -38 -15 -49 -15 -11 0 -33 -9 -50 -20 -27
-18 -85 -28 -85 -15 0 4 6 18 14 34 8 15 11 32 8 38 -9 13 -43 8 -52 -7 -4 -7
-25 -13 -46 -14 -22 -2 -76 -10 -121 -19 -45 -8 -91 -13 -102 -10 -16 4 -22
-2 -29 -28 -6 -27 -14 -35 -41 -40 -40 -8 -58 -25 -70 -64 -4 -17 -9 -144 -10
-283 l-2 -253 93 5 c51 3 102 5 113 5 11 0 1051 -2 2312 -5 l2291 -5 7 21 7
22 15 -21 c16 -23 61 -28 68 -8 7 16 178 21 225 6 39 -12 378 -23 404 -13 13
5 15 14 11 35 -4 17 0 39 9 58 20 37 14 109 -11 151 -9 17 -20 30 -24 30 -5 0
-29 45 -29 56 0 3 11 -8 25 -23 35 -40 32 -9 -5 47 -58 88 -79 107 -141 130
-40 15 -56 26 -47 31 7 4 10 10 8 12 -14 11 -154 55 -230 72 -80 19 -180 63
-246 111 -63 44 -224 199 -224 214 0 20 19 17 68 -8 43 -22 54 -24 64 -13 10
11 10 14 1 18 -7 3 -13 17 -13 31 0 30 -43 91 -53 75 -8 -13 22 -55 34 -48 5
4 9 1 9 -4 0 -14 -13 -14 -28 1 -7 7 -12 8 -12 2 0 -6 5 -15 12 -22 17 -17 4
-24 -26 -13 -29 12 -35 31 -8 31 14 1 13 4 -7 20 -18 15 -19 20 -7 20 9 0 16
5 16 10 0 6 -5 10 -11 10 -5 0 -7 5 -3 12 5 8 2 9 -9 5 -10 -3 -17 -2 -17 3 0
6 5 10 10 10 18 0 31 49 20 71 -14 25 -3 44 16 28 8 -6 18 -9 22 -5 9 10 -27
36 -49 36 -9 0 -20 7 -23 16 -9 22 -8 24 9 24 17 0 20 17 4 22 -7 2 -7 12 -1
29 6 15 7 31 1 40 -13 21 -11 56 4 61 18 7 38 -2 31 -14 -5 -7 -2 -8 6 -3 10
6 7 12 -10 25 -21 15 -21 18 -5 33 9 9 23 17 30 17 25 0 27 20 3 40 -23 19
-23 19 -2 20 12 0 25 -7 28 -17 6 -15 8 -15 20 2 12 16 14 15 25 -14 8 -17 18
-31 23 -31 5 0 4 9 -2 21 -7 11 -10 23 -7 25 7 7 27 -22 32 -46 5 -28 18 -42
13 -15 -4 25 33 33 52 10 10 -12 10 -15 -4 -15 -9 0 -16 5 -16 10 0 6 -5 10
-11 10 -6 0 -9 -6 -6 -14 3 -7 1 -18 -5 -24 -12 -12 28 -37 55 -33 9 1 17 -2
17 -8 0 -6 7 -8 16 -4 14 5 15 3 4 -17 -11 -20 -10 -22 5 -17 9 4 19 7 21 7 2
0 4 7 4 15 0 24 27 17 34 -9 6 -26 104 -106 129 -106 10 0 17 7 17 15 0 30
-29 85 -44 85 -20 0 -21 36 -1 44 8 3 15 1 15 -4 0 -6 5 -10 11 -10 5 0 31
-10 57 -22 69 -31 192 -59 192 -43 0 7 -7 15 -15 19 -8 3 -15 14 -15 24 0 11
-12 32 -27 47 -19 19 -22 26 -10 22 9 -3 17 -2 17 3 0 14 -49 48 -80 55 -17 4
-30 11 -30 17 0 6 9 8 23 4 12 -4 47 -12 77 -17 30 -6 72 -20 93 -30 23 -12
47 -18 60 -14 17 5 19 4 7 -4 -13 -10 -13 -11 0 -12 8 -1 20 -1 27 0 6 1 18
-8 27 -20 9 -14 21 -19 31 -15 9 3 30 -1 47 -10 30 -15 31 -15 25 5 -3 11 1
25 8 31 21 18 25 49 7 61 -12 7 -14 12 -4 15 25 11 11 26 -52 55 -70 33 -92
52 -80 70 5 8 10 7 16 -5 9 -16 11 -16 29 0 26 24 25 27 -21 53 -22 12 -39 25
-39 29 4 23 -6 35 -53 67 -29 19 -45 35 -36 35 15 0 16 4 7 28 -6 15 -22 39
-36 54 -14 14 -22 31 -19 36 3 6 0 12 -6 15 -7 2 -10 8 -6 12 4 4 14 2 23 -5
9 -7 19 -10 23 -6 4 4 -4 16 -17 27 -29 24 -25 29 29 36 33 5 40 9 34 22 -11
27 -5 65 13 78 23 17 68 16 83 -1 6 -8 18 -12 26 -9 19 7 8 23 -17 23 -10 0
-19 5 -19 10 0 6 8 10 19 10 20 0 45 23 35 33 -7 7 49 37 69 37 8 0 22 10 31
23 12 15 16 17 12 5 -6 -21 -6 -21 29 -8 14 5 24 14 21 19 -4 5 0 11 6 14 17
5 58 -13 58 -27 0 -8 2 -8 8 0 4 6 17 16 30 23 12 7 20 16 17 20 -7 12 19 21
57 21 17 0 36 7 43 16 6 9 30 18 52 20 43 3 90 30 139 79 17 17 38 35 47 40 9
6 17 17 19 25 2 8 11 21 21 28 9 7 17 25 17 40 1 25 2 26 15 8 13 -17 15 -17
37 -2 12 9 30 16 40 16 19 0 25 16 7 22 -7 2 -6 13 2 33 7 17 13 35 14 41 5
20 63 95 72 92 11 -4 11 -30 -1 -53 -6 -11 -11 -34 -12 -52 -3 -28 -1 -31 14
-22 12 7 17 23 17 45 -2 40 1 41 32 12 13 -12 25 -20 27 -17 2 2 6 24 9 49 7
65 20 93 61 124 20 15 36 33 36 40 0 7 9 22 21 35 12 12 22 28 23 34 6 24 18
47 27 47 20 0 7 -52 -21 -83 -16 -19 -30 -40 -30 -47 0 -18 81 50 99 84 9 16
29 43 44 60 16 17 32 37 37 46 5 8 12 12 16 7 9 -8 -25 -77 -46 -94 -9 -7 -10
-12 -4 -13 13 0 74 59 74 72 0 4 8 8 17 8 15 0 14 2 -3 15 -19 14 -19 15 3 21
13 4 26 19 33 38 14 42 77 95 98 82 19 -11 124 107 115 130 -2 6 3 16 11 23
12 10 13 8 9 -11 -5 -18 6 -11 45 29 28 29 56 53 61 53 6 0 11 5 11 12 0 16
50 68 66 68 6 0 17 7 24 15 7 9 20 13 29 10 8 -3 13 -3 9 0 -3 4 15 48 41 98
27 51 46 97 44 104 -2 6 10 22 27 35 38 27 90 102 90 127 0 10 11 35 25 55 25
37 53 110 75 196 6 25 14 52 17 60 4 8 7 17 8 20 0 3 8 19 17 35 30 56 58 149
58 192 0 23 5 45 11 49 6 3 17 22 25 40 l14 34 73 -6 c76 -7 137 11 137 39 0
7 -3 8 -8 2 -11 -15 -50 -21 -119 -16 -12 0 -24 10 -28 22 -5 16 -10 18 -21 8
-11 -9 -15 -6 -22 12 -13 35 -15 232 -2 224 12 -7 12 -4 1 51 -6 30 -2 69 12
135 21 98 24 194 7 214 -6 7 -8 30 -4 51 20 136 35 394 25 430 -11 40 -6 97
19 198 11 45 22 98 25 119 4 21 13 53 20 71 8 19 24 69 35 112 24 92 43 114
74 85 33 -29 64 -32 81 -8 8 12 15 28 15 37 0 8 11 39 25 68 16 34 27 80 31
130 3 42 7 79 9 82 3 4 12 80 20 165 2 17 6 50 10 75 14 83 7 197 -14 253 -8
22 -8 27 4 27 23 0 27 19 11 52 -15 30 -15 33 6 55 l22 23 -28 58 c-16 31 -30
71 -32 87 -7 78 -16 137 -30 223 -8 51 -14 98 -12 104 5 15 -22 112 -56 203
-18 47 -28 97 -32 150 -6 115 -12 153 -30 180 -18 28 -24 75 -11 92 16 22 -1
58 -42 88 -44 34 -77 78 -73 99 1 8 -9 16 -22 20 -13 3 -32 19 -42 35 -11 16
-40 52 -66 79 -27 28 -48 55 -48 60 0 16 -63 82 -78 82 -15 0 -142 127 -142
142 0 9 -78 129 -90 138 -17 14 -92 116 -120 164 -17 30 -41 58 -53 62 -12 4
-44 30 -72 58 -27 28 -61 57 -75 64 -14 8 -38 31 -55 52 -16 21 -42 43 -58 49
-15 6 -30 18 -34 28 -4 9 -12 24 -19 33 -47 58 -105 133 -138 178 -42 58 -56
65 -51 25 2 -16 4 -31 4 -35 1 -5 8 -8 15 -8 8 0 26 -15 40 -33 35 -45 35 -77
1 -43 -8 7 -11 17 -7 21 4 5 1 5 -6 1 -8 -5 -20 -1 -31 10 -26 29 -63 83 -65
97 -4 24 -27 57 -40 57 -8 0 -16 -9 -19 -20 -7 -29 -26 -25 -113 20 -68 36
-80 40 -107 30 -23 -7 -37 -7 -58 4 -37 19 -37 7 1 -29 17 -16 30 -32 30 -36
0 -16 -111 31 -162 68 -74 54 -143 88 -213 108 -74 20 -112 40 -241 125 -89
59 -186 102 -200 88 -2 -3 17 -13 43 -23 66 -24 69 -29 32 -56 -39 -27 -94
-29 -132 -4 -14 9 -38 15 -53 13 -30 -3 -59 27 -37 40 7 4 10 16 8 27 -2 11
-4 25 -4 31 -1 7 -9 14 -18 18 -10 3 -24 9 -30 12 -7 3 -13 -1 -13 -8z m108
-160 c-5 -15 -23 -11 -26 6 -2 11 2 14 13 10 9 -4 14 -11 13 -16z m268 -9 c40
-32 66 -65 45 -58 -17 6 -100 73 -101 82 0 14 18 7 56 -24z m-65 0 c11 -5 17
-14 14 -19 -8 -13 -45 0 -45 16 0 17 5 17 31 3z m-521 -64 c7 -9 8 -15 2 -15
-5 0 -12 7 -16 15 -3 8 -4 15 -2 15 2 0 9 -7 16 -15z m53 -20 c-3 -9 -8 -14
-10 -11 -3 3 -2 9 2 15 9 16 15 13 8 -4z m-149 -24 c-18 -30 -57 -55 -68 -43
-7 6 63 71 77 72 5 0 0 -13 -9 -29z m386 19 c0 -5 -8 -10 -17 -10 -15 0 -16 2
-3 10 19 12 20 12 20 0z m-301 -19 c5 -8 18 -10 36 -5 22 5 26 4 20 -7 -23
-40 -61 -67 -49 -34 7 17 -21 21 -31 5 -16 -26 -38 3 -28 39 6 22 39 24 52 2z
m136 -2 c10 -15 -1 -23 -20 -15 -9 3 -13 10 -10 16 8 13 22 13 30 -1z m765
-19 c0 -5 -4 -10 -9 -10 -6 0 -13 5 -16 10 -3 6 1 10 9 10 9 0 16 -4 16 -10z
m-610 -15 c0 -8 -7 -15 -15 -15 -26 0 -18 20 13 29 1 1 2 -6 2 -14z m709 -30
c2 -3 2 -7 -1 -10 -9 -9 -88 26 -82 36 4 8 69 -13 83 -26z m-795 10 c-6 -16
-24 -21 -24 -7 0 11 11 22 21 22 5 0 6 -7 3 -15z m-344 -23 c0 -10 -100 -65
-107 -58 -6 5 85 66 99 66 4 0 8 -4 8 -8z m84 -23 c-3 -5 -10 -7 -15 -3 -5 3
-7 10 -3 15 3 5 10 7 15 3 5 -3 7 -10 3 -15z m1395 -73 c19 -20 30 -36 24 -36
-17 0 -92 63 -92 78 -1 18 27 1 68 -42z m-643 17 c-7 -7 -26 7 -26 19 0 6 6 6
15 -2 9 -7 13 -15 11 -17z m-666 -13 c0 -5 -7 -10 -16 -10 -8 0 -12 5 -9 10 3
6 10 10 16 10 5 0 9 -4 9 -10z m-375 -10 c-3 -5 -14 -10 -23 -10 -15 0 -15 2
-2 10 20 13 33 13 25 0z m123 -7 c-13 -27 -27 -61 -32 -75 -8 -25 -26 -22 -26
3 0 21 38 77 53 78 5 1 7 -2 5 -6z m452 3 c0 -3 -4 -8 -10 -11 -5 -3 -10 -1
-10 4 0 6 5 11 10 11 6 0 10 -2 10 -4z m-100 -16 c0 -5 -4 -10 -10 -10 -5 0
-10 5 -10 10 0 6 5 10 10 10 6 0 10 -4 10 -10z m-455 -21 c-8 -12 -35 -12 -35
0 0 11 22 20 33 14 4 -2 5 -9 2 -14z m398 7 c13 0 14 -3 5 -12 -18 -17 -68
-29 -68 -16 0 26 13 43 29 36 9 -4 24 -7 34 -8z m822 -97 c11 -17 -1 -21 -15
-4 -8 9 -8 15 -2 15 6 0 14 -5 17 -11z m-1405 -21 c0 -7 -8 -22 -17 -33 -14
-18 -15 -18 -9 -2 3 10 6 25 6 33 0 8 5 14 10 14 6 0 10 -6 10 -12z m-60 -8
c0 -5 -5 -10 -11 -10 -5 0 -7 5 -4 10 3 6 8 10 11 10 2 0 4 -4 4 -10z m520 -5
c-7 -9 -15 -13 -17 -11 -7 7 7 26 19 26 6 0 6 -6 -2 -15z m776 -24 c16 -9 14
-10 -12 -6 -32 5 -104 32 -104 39 0 7 96 -20 116 -33z m-1072 14 c-4 -8 -10
-15 -15 -15 -4 0 -6 7 -3 15 4 8 10 15 15 15 4 0 6 -7 3 -15z m-260 -30 c-4
-8 -8 -15 -10 -15 -2 0 -4 7 -4 15 0 8 4 15 10 15 5 0 7 -7 4 -15z m36 5 c0
-5 -5 -10 -11 -10 -5 0 -7 5 -4 10 3 6 8 10 11 10 2 0 4 -4 4 -10z m1330 -26
c0 -2 -7 -4 -15 -4 -8 0 -15 4 -15 10 0 5 7 7 15 4 8 -4 15 -8 15 -10z m-1360
-13 c0 -15 -29 -33 -44 -28 -8 3 -16 1 -18 -5 -2 -6 -9 -8 -16 -4 -6 3 -8 14
-5 22 4 11 14 14 34 10 16 -3 29 -1 29 4 0 6 5 10 10 10 6 0 10 -4 10 -9z
m1279 -5 c44 -11 104 -36 99 -42 -3 -2 -23 2 -46 10 -23 8 -72 18 -109 21 -38
4 -71 10 -75 13 -10 10 90 8 131 -2z m-474 -16 c-3 -5 -21 -9 -38 -9 l-32 1
30 8 c43 11 47 11 40 0z m1635 -40 c0 -5 -2 -10 -4 -10 -3 0 -8 5 -11 10 -3 6
-1 10 4 10 6 0 11 -4 11 -10z m-2537 -17 c2 6 8 9 12 5 4 -4 0 -19 -9 -33 -9
-14 -14 -30 -11 -34 5 -10 -41 -51 -57 -51 -5 0 -22 -14 -38 -32 -16 -17 -33
-29 -37 -25 -4 5 5 18 20 31 26 22 26 24 7 29 -18 5 -19 7 -4 35 10 20 20 29
29 25 8 -3 15 -9 15 -14 0 -14 25 0 39 23 11 18 11 20 -4 14 -25 -9 -39 4 -18
19 12 9 24 10 35 4 11 -6 18 -5 21 4z m167 -23 c0 -5 -5 -10 -11 -10 -5 0 -7
5 -4 10 3 6 8 10 11 10 2 0 4 -4 4 -10z m90 -14 c0 -2 -8 -10 -17 -17 -16 -13
-17 -12 -4 4 13 16 21 21 21 13z m-230 -22 c0 -8 -5 -12 -10 -9 -6 4 -8 11 -5
16 9 14 15 11 15 -7z m2615 -24 c3 -5 -1 -10 -9 -10 -9 0 -16 5 -16 10 0 6 4
10 9 10 6 0 13 -4 16 -10z m-2558 -36 c-3 -3 -12 -4 -19 -1 -8 3 -5 6 6 6 11
1 17 -2 13 -5z m2380 -50 c-3 -3 -12 -4 -19 -1 -8 3 -5 6 6 6 11 1 17 -2 13
-5z m-997 -47 c0 -4 -9 -3 -20 3 -11 6 -20 15 -20 20 0 6 9 5 20 -2 11 -7 20
-16 20 -21z m308 -36 c30 -16 27 -22 -5 -11 -16 5 -49 11 -75 15 -26 3 -50 10
-52 14 -7 11 107 -4 132 -18z m732 5 c0 -3 -4 -8 -10 -11 -5 -3 -10 -1 -10 4
0 6 5 11 10 11 6 0 10 -2 10 -4z m-2881 -23 c-25 -32 -51 -53 -60 -47 -26 15
12 64 49 64 22 0 23 -2 11 -17z m1176 -3 c-3 -5 -15 -15 -25 -20 -16 -8 -18
-8 -14 4 3 8 13 17 22 19 10 3 18 5 20 6 2 0 0 -3 -3 -9z m-1278 -30 c-1 -12
-8 -20 -19 -20 -21 0 -22 4 -7 31 12 23 28 17 26 -11z m2232 3 c22 -27 21 -45
-1 -22 -29 31 -40 49 -30 49 6 0 20 -12 31 -27z m-1056 2 c-3 -9 -8 -14 -10
-11 -3 3 -2 9 2 15 9 16 15 13 8 -4z m1863 -9 c15 -16 19 -36 6 -36 -12 0 -32
23 -32 37 0 17 8 16 26 -1z m-3106 -40 c0 -8 -7 -16 -15 -20 -17 -6 -18 -4 -9
18 8 20 24 21 24 2z m-66 -51 c-4 -8 -10 -12 -15 -9 -11 6 -2 24 11 24 5 0 7
-7 4 -15z m193 -7 c-3 -8 -6 -5 -6 6 -1 11 2 17 5 13 3 -3 4 -12 1 -19z m-111
-2 c-6 -41 -61 -61 -86 -32 -10 13 -7 14 14 10 17 -3 32 2 43 15 22 23 32 26
29 7z m1836 -103 c13 4 29 0 40 -10 16 -14 17 -14 13 6 -5 29 3 27 15 -4 11
-29 30 -33 30 -6 0 13 7 19 26 19 17 0 24 -5 20 -14 -8 -20 8 -25 43 -11 24 9
36 9 50 0 10 -6 28 -9 40 -6 13 3 21 1 21 -7 0 -7 8 -9 20 -5 14 4 28 -2 47
-22 14 -15 23 -23 20 -17 -12 21 43 27 64 8 18 -16 20 -16 37 -1 29 26 43 22
32 -9 -14 -35 -12 -51 4 -57 10 -4 13 -1 9 9 -3 8 2 23 11 33 9 10 13 21 9 24
-3 4 3 7 15 7 13 0 22 6 22 15 0 18 5 18 29 5 11 -5 21 -26 25 -50 3 -22 11
-40 17 -40 6 0 8 15 4 40 -6 37 -4 40 18 40 16 0 34 -12 52 -35 16 -19 32 -32
38 -28 5 3 4 9 -3 13 -23 14 9 22 45 10 19 -6 43 -9 54 -5 19 6 51 -17 51 -37
0 -6 8 -17 18 -24 15 -12 15 -15 2 -24 -12 -8 -10 -10 10 -10 42 0 100 -20
100 -34 0 -8 12 -17 26 -20 15 -4 32 -12 39 -19 7 -7 45 -41 85 -77 40 -36 80
-72 89 -81 18 -19 60 -42 80 -45 8 -2 21 -10 30 -18 14 -15 12 -16 -17 -16
-40 0 -42 -18 -2 -31 45 -16 36 -29 -15 -23 l-44 5 32 -33 c36 -37 71 -58 97
-58 10 0 23 -7 30 -16 18 -20 17 -83 -1 -95 -9 -6 -2 -7 21 -3 l35 6 -30 -28
c-22 -20 -24 -25 -10 -21 59 18 75 19 76 6 1 -8 2 -21 3 -29 1 -10 16 -17 44
-21 49 -6 66 -24 50 -52 -6 -11 -14 -33 -18 -48 -7 -25 -6 -29 11 -29 11 0 19
-7 20 -17 1 -10 2 -38 3 -63 5 -84 6 -90 17 -90 6 0 9 7 5 15 -3 8 -2 25 3 37
l8 22 12 -21 c6 -12 10 -26 9 -30 -1 -4 2 -32 6 -62 8 -52 80 -211 95 -211 7
0 10 -11 12 -47 0 -10 12 -44 25 -76 14 -32 27 -78 29 -102 2 -25 15 -66 29
-91 14 -26 26 -53 26 -60 0 -8 5 -14 10 -14 6 0 10 5 10 12 0 8 6 6 17 -5 13
-12 18 -36 19 -85 1 -37 8 -80 14 -97 14 -36 21 -123 10 -130 -4 -3 -6 -31 -3
-62 2 -32 4 -74 4 -93 -1 -53 0 -185 1 -405 1 -206 -7 -379 -18 -397 -4 -6 -2
-13 5 -17 7 -5 8 -17 2 -39 -5 -18 -7 -32 -3 -32 11 0 6 -150 -8 -220 -7 -36
-14 -83 -15 -105 -1 -22 -2 -43 -3 -47 -3 -13 3 -23 11 -21 4 2 7 -2 7 -8 0
-7 -11 -8 -29 -4 -30 6 -30 6 -20 -27 12 -44 12 -51 -5 -45 -15 6 -16 -8 -17
-136 0 -39 -4 -65 -10 -62 -15 10 -10 -24 7 -50 10 -15 12 -25 5 -25 -13 0
-47 32 -53 51 -2 7 -10 9 -16 5 -9 -5 -9 -13 -2 -26 13 -24 13 -58 1 -45 -5 6
-11 19 -14 30 -4 15 -5 14 -6 -7 0 -15 3 -29 9 -33 18 -11 -1 -36 -22 -29 -14
4 -18 2 -13 -5 3 -7 9 -35 11 -62 5 -57 11 -72 25 -63 5 3 7 10 4 15 -4 5 -1
9 4 9 6 0 11 -10 12 -22 0 -13 2 -36 3 -52 1 -16 -4 -35 -12 -42 -9 -10 -10
-19 -2 -33 12 -24 8 -69 -10 -98 -13 -19 -15 -20 -37 -6 -22 15 -23 40 -1 27
8 -5 9 -1 5 10 -4 10 -7 22 -7 27 0 15 -27 10 -34 -7 -3 -9 -6 -29 -6 -45 0
-28 -32 -97 -54 -112 -7 -6 -4 -6 8 -3 12 4 17 2 13 -6 -2 -7 -7 -24 -11 -38
l-7 -25 21 24 c11 13 27 48 36 77 8 30 17 54 18 54 2 0 4 -19 5 -42 1 -24 4
-63 5 -88 4 -55 -6 -89 -14 -46 -6 33 -27 33 -22 1 1 -15 -4 -21 -19 -22 -14
-1 -19 3 -15 13 9 25 -14 15 -26 -11 -6 -14 -14 -25 -18 -25 -18 0 -18 15 0
41 12 16 16 30 11 34 -5 3 -8 15 -6 27 4 21 4 21 -19 -1 -22 -21 -25 -21 -34
-5 -11 20 -34 10 -25 -11 3 -8 1 -15 -5 -15 -13 0 -24 44 -16 67 5 15 4 15 -5
3 -15 -22 -13 -51 5 -71 15 -17 15 -22 -7 -65 -21 -45 -23 -46 -31 -23 -9 24
-4 95 12 159 5 19 11 62 14 95 14 159 15 194 6 200 -5 3 -7 12 -4 19 3 7 -2
18 -10 25 -13 11 -15 9 -12 -16 4 -31 -44 -161 -64 -173 -9 -6 -10 -23 -5 -66
9 -67 7 -105 -6 -119 -5 -5 -9 -18 -9 -30 0 -11 -6 -29 -14 -40 -7 -11 -16
-41 -19 -67 -4 -26 -14 -65 -23 -85 -14 -34 -17 -36 -24 -18 -8 18 -9 18 -9 2
-1 -10 -5 -15 -11 -12 -6 4 -11 -10 -11 -34 -2 -58 -3 -61 -14 -61 -5 0 -10 8
-10 17 0 9 -6 18 -13 21 -12 4 -15 -7 -13 -44 2 -25 -26 -60 -56 -69 -26 -7
-30 6 -8 25 30 25 14 30 -22 7 -21 -13 -51 -27 -67 -31 -31 -8 -30 -14 3 -21
11 -2 25 -6 30 -10 5 -3 21 -1 34 4 19 7 28 6 37 -4 16 -19 -14 -60 -55 -76
-26 -10 -27 -12 -10 -16 28 -7 36 -16 41 -52 4 -26 2 -30 -11 -24 -12 4 -15
14 -12 32 5 23 4 24 -8 8 -7 -9 -10 -28 -8 -41 5 -25 -16 -86 -29 -86 -3 0 -8
6 -11 13 -3 8 -7 6 -11 -5 -3 -10 -9 -26 -13 -35 -6 -18 -9 -27 -12 -39 0 -3
-6 -2 -12 2 -8 4 -8 9 0 17 6 6 11 20 11 32 -1 19 -1 19 -15 1 -8 -10 -20 -43
-26 -72 -7 -30 -14 -54 -17 -54 -3 0 -11 8 -18 18 -13 15 -13 15 -6 -7 6 -17
4 -30 -6 -42 -18 -21 -42 -14 -42 13 0 15 4 18 18 14 9 -4 2 6 -16 21 -43 36
-51 87 -18 115 11 9 17 17 13 18 -4 0 -3 9 3 20 11 21 1 27 -17 9 -7 -7 -12
-6 -17 6 -4 10 -2 14 6 9 7 -4 8 -3 4 4 -4 7 -15 12 -24 12 -24 0 -2 18 28 22
18 2 26 10 28 28 2 14 7 29 12 34 4 4 4 21 0 36 -7 24 -4 32 13 44 20 14 20
15 2 9 -14 -4 -17 -3 -10 4 16 17 63 24 67 12 2 -7 17 16 32 50 29 65 30 99 1
38 -9 -19 -27 -45 -40 -57 -23 -22 -25 -22 -32 -5 -4 11 -2 20 5 23 17 5 42
32 42 44 0 6 -6 6 -15 -2 -13 -10 -15 -9 -15 9 0 12 7 24 14 27 8 3 24 34 36
69 12 35 28 69 36 76 22 18 44 64 48 100 2 17 12 43 23 57 17 23 19 41 17 120
-2 51 -5 108 -8 125 -6 35 -29 97 -42 110 -14 13 -33 79 -27 93 3 9 -2 14 -17
14 -18 0 -20 3 -11 14 9 11 6 18 -15 35 -15 12 -31 21 -35 21 -17 0 -9 18 21
50 16 17 34 29 39 26 11 -7 -10 66 -21 74 -4 3 -9 15 -10 25 -2 11 -6 20 -10
20 -13 0 -60 51 -69 74 -6 15 -15 21 -24 17 -11 -4 -15 2 -15 19 0 18 -5 25
-20 25 -18 0 -45 32 -34 42 11 11 -30 33 -68 37 -5 1 -8 7 -8 14 0 20 -37 50
-50 42 -6 -4 -20 1 -31 11 -11 10 -27 19 -36 20 -9 2 -29 12 -44 23 -16 12
-34 21 -41 21 -8 0 -32 9 -53 21 -45 23 -207 79 -230 79 -23 0 -18 -17 12 -37
25 -17 103 -93 137 -134 21 -25 20 -57 -1 -62 -14 -3 -12 -6 10 -15 15 -6 27
-16 27 -20 0 -9 22 -37 83 -105 15 -17 26 -36 23 -43 -3 -7 11 -23 30 -36 19
-12 37 -33 40 -45 3 -12 12 -24 21 -27 8 -3 11 -10 8 -16 -3 -5 -1 -10 4 -10
6 0 14 0 19 -1 13 -1 33 -49 42 -104 5 -30 20 -71 33 -90 23 -34 24 -39 12
-80 -12 -39 -12 -45 6 -64 11 -11 21 -33 23 -48 2 -16 1 -22 -1 -14 -11 30
-62 91 -68 81 -5 -8 -11 -8 -21 1 -11 9 -14 7 -14 -10 0 -23 -21 -28 -42 -8
-7 6 -38 32 -68 57 -49 40 -52 42 -33 14 12 -17 29 -37 38 -44 23 -19 18 -37
-10 -36 -28 1 -30 -5 -13 -33 10 -16 14 -17 25 -5 16 16 63 -1 63 -23 0 -7 5
-13 11 -13 8 0 8 -5 -1 -15 -11 -13 -8 -16 19 -21 29 -6 43 -22 21 -25 -5 -1
-16 -2 -22 -3 -7 -1 -19 3 -27 8 -12 9 -13 7 -8 -6 3 -10 2 -20 -4 -23 -20
-13 -138 -6 -191 11 -48 15 -80 13 -85 -7 -7 -25 -20 -24 -28 2 -5 15 -10 18
-18 10 -14 -14 -54 -14 -62 -1 -9 14 -25 2 -19 -13 3 -10 -20 -12 -101 -11
-58 1 -122 -2 -143 -7 -20 -5 -54 -11 -74 -13 -21 -2 -44 -9 -53 -16 -19 -16
-45 3 -45 32 0 14 -5 18 -15 14 -11 -4 -19 3 -25 19 -10 27 -38 33 -58 13 -10
-10 -16 -7 -28 10 -15 21 -52 33 -39 12 3 -5 2 -10 -4 -10 -5 0 -16 -3 -25 -6
-10 -4 -16 -1 -16 9 0 10 -19 18 -62 26 -35 6 -81 16 -103 22 -22 6 -52 13
-67 16 -18 3 -28 13 -31 29 -4 22 3 28 60 56 72 34 88 55 80 105 -5 31 -4 33
15 28 16 -6 19 -4 14 12 -4 12 1 23 14 31 16 10 21 9 30 -8 6 -11 7 -20 3 -20
-4 0 -2 -5 5 -12 9 -9 16 -7 32 7 11 10 20 14 20 10 0 -5 5 -4 12 3 7 7 22 12
34 12 13 0 26 5 30 11 5 9 -4 10 -31 5 -35 -7 -38 -6 -25 9 7 9 32 25 54 36
23 11 54 27 70 36 34 18 75 5 83 -27 3 -11 10 -20 17 -21 32 -2 48 -9 66 -31
26 -31 26 -4 -1 33 -11 16 -29 29 -39 29 -24 0 -36 20 -19 31 21 13 29 11 23
-8 -2 -10 1 -8 7 5 8 15 18 21 28 16 18 -7 25 -7 61 -1 25 4 39 9 133 49 55
22 122 67 114 75 -3 2 -15 -1 -27 -7 -15 -8 -30 -8 -55 0 -80 26 -208 31 -287
10 -141 -39 -163 -39 -228 -8 -49 23 -65 26 -118 21 -61 -6 -68 -3 -63 29 0 4
-9 10 -22 14 -35 11 -57 40 -57 78 0 46 29 106 51 106 15 0 16 5 8 32 -5 17
-7 43 -5 57 3 14 7 51 11 82 3 31 8 67 11 80 2 13 6 47 8 74 3 28 9 62 15 78
8 19 7 42 -1 78 -9 39 -9 58 0 82 10 25 9 34 -4 48 -16 17 -11 44 6 34 4 -3
10 19 13 47 2 29 8 63 12 76 6 17 3 22 -9 22 -20 0 -21 16 -2 23 12 5 13 13 5
39 -5 18 -9 52 -9 75 0 23 -5 45 -10 48 -7 4 -6 14 2 28 15 27 17 39 6 53 -4
6 -1 31 7 54 12 34 13 45 3 51 -7 4 -16 5 -21 2 -10 -6 -27 15 -27 33 0 7 9
14 20 17 11 3 20 1 20 -4 0 -5 5 -9 11 -9 8 0 7 5 -2 16 -10 12 -10 20 -1 35
10 16 10 23 -3 35 -19 19 -19 28 -1 21 10 -4 13 -1 9 9 -3 7 -12 14 -20 14 -8
0 -11 5 -8 10 3 6 14 10 24 10 9 0 25 6 36 13 16 13 15 14 -16 16 -19 2 -46 3
-61 2 -18 0 -28 5 -28 14 0 18 -15 27 -52 31 -17 2 -39 16 -54 34 -30 36 -48
39 -38 8 9 -30 -4 -18 -24 24 -10 18 -23 34 -29 34 -24 3 -25 4 -14 18 10 11
8 17 -6 25 -13 8 -14 10 -3 11 14 0 -55 64 -72 66 -4 1 -15 2 -24 3 -8 0 -13
5 -9 10 3 6 -3 15 -14 20 -14 8 -20 8 -23 -1 -3 -7 -12 -9 -23 -4 -15 6 -17 9
-6 16 8 4 11 15 8 24 -7 19 -50 38 -55 25 -2 -5 -11 -9 -20 -8 -11 0 -12 2 -4
6 29 12 8 23 -45 23 l-58 0 25 19 25 19 -25 6 c-14 3 -34 4 -45 2 -27 -4 -35
12 -23 43 6 14 11 35 12 46 1 11 7 19 14 17 7 -1 12 2 12 8 0 9 -22 15 -43 11
-5 -1 -7 20 -5 46 3 41 1 48 -14 45 -18 -3 -21 10 -20 81 0 16 -6 31 -14 34
-8 3 -14 16 -14 30 0 20 -4 24 -17 19 -12 -4 -10 0 6 14 19 17 26 18 39 8 13
-11 14 -10 10 2 -2 8 -15 17 -29 20 -25 7 -28 32 -6 58 8 11 7 16 -5 23 -14 8
-15 15 -6 39 5 17 14 30 19 30 5 0 9 7 9 15 0 8 5 15 10 15 15 0 12 -21 -7
-42 -9 -10 -11 -18 -5 -18 6 0 14 5 17 10 3 6 15 10 26 10 19 0 21 4 23 44 1
11 7 21 15 24 8 3 11 0 7 -7 -4 -6 -3 -11 2 -11 15 0 21 37 8 50 -8 8 -8 13 1
18 8 5 9 13 3 22 -5 8 -12 11 -16 8 -3 -4 -13 0 -22 8 -13 14 -13 17 3 32 16
16 18 16 28 -1 31 -49 33 -50 29 -11 -3 27 0 41 12 50 11 8 13 14 7 19 -16 9
-13 25 4 25 17 0 20 16 5 25 -6 4 -8 10 -5 15 3 5 0 12 -6 15 -7 5 -1 14 15
24 25 17 25 17 6 34 -16 13 -18 21 -10 42 13 34 13 32 -10 38 -23 6 -27 27 -6
27 19 0 27 24 20 58 -5 23 -1 30 20 40 25 11 38 0 16 -13 -22 -14 -8 -22 20
-12 18 7 30 19 30 30 0 10 -4 15 -10 12 -19 -12 -32 6 -14 19 16 12 16 13 0
19 -12 5 -15 14 -10 34 10 44 7 75 -7 84 -11 7 -10 11 5 22 23 17 15 46 -14
54 -11 3 -20 9 -20 14 0 5 12 4 27 -2 24 -9 30 -7 42 10 15 23 36 29 28 8 -4
-11 2 -11 29 -3 19 6 34 14 34 19 0 4 12 12 26 17 17 7 24 15 20 25 -8 21 8
19 35 -6 13 -11 18 -17 11 -14 -8 4 -19 -1 -26 -11 -11 -15 -11 -20 0 -32 19
-19 44 1 44 35 0 15 5 23 13 20 6 -2 21 3 31 12 18 15 19 15 11 -4 -4 -11 -7
-27 -7 -37 0 -9 -8 -18 -19 -21 -10 -3 -19 -13 -19 -23 0 -16 1 -16 13 -1 16
22 67 27 93 10 18 -11 23 -11 34 2 8 10 24 13 49 10 20 -2 43 0 51 5 12 8 10
10 -10 10 -24 0 -50 16 -50 30 0 11 54 10 61 -2 5 -7 7 2 7 20 -1 20 -6 32
-15 32 -7 0 -13 4 -13 9 0 4 12 6 26 3 l25 -5 -20 38 c-11 20 -17 44 -13 53 4
11 7 12 10 4 3 -10 7 -10 18 -1 11 9 14 9 14 -1 0 -10 3 -10 15 0 8 6 19 9 25
5 5 -3 10 -1 10 4 0 6 7 11 15 11 8 0 15 7 15 16 0 11 5 14 16 10 38 -15 67
-19 61 -9 -10 15 16 23 55 17 55 -9 92 -6 97 7 2 8 8 7 17 -6 9 -12 20 -16 36
-12z m-1922 13 c0 -3 -4 -8 -10 -11 -5 -3 -10 -1 -10 4 0 6 5 11 10 11 6 0 10
-2 10 -4z m-25 -56 c-10 -18 -23 -30 -36 -30 -11 0 -17 5 -14 10 3 6 12 10 18
10 7 0 18 9 25 20 19 31 24 24 7 -10z m-100 11 c3 -5 1 -12 -5 -16 -5 -3 -10
1 -10 9 0 18 6 21 15 7z m2505 -11 c8 -5 11 -12 7 -16 -4 -4 -15 0 -24 9 -18
18 -8 23 17 7z m315 0 c3 -5 -1 -10 -10 -10 -9 0 -13 5 -10 10 3 6 8 10 10 10
2 0 7 -4 10 -10z m-1201 -13 c3 3 6 1 6 -5 0 -7 0 -15 0 -19 1 -18 -29 -8 -39
13 -10 22 -9 24 8 15 10 -6 21 -7 25 -4z m-1624 -18 c0 -11 -29 -19 -34 -10
-3 5 -3 10 -1 13 8 7 35 5 35 -3z m250 -39 c0 -5 -9 -10 -20 -10 -11 0 -20 5
-20 10 0 6 9 10 20 10 11 0 20 -4 20 -10z m1090 -1 c0 -10 -27 -19 -34 -12
-11 12 -6 19 14 19 11 0 20 -3 20 -7z m-1376 -52 c17 -12 16 -15 -14 -45 -32
-33 -63 -41 -76 -21 -3 6 0 15 7 20 35 21 49 34 49 46 0 17 11 16 34 0z m61
-7 c3 -6 -1 -13 -10 -16 -19 -8 -30 0 -20 15 8 14 22 14 30 1z m1200 0 c3 -5
1 -10 -4 -10 -6 0 -11 5 -11 10 0 6 2 10 4 10 3 0 8 -4 11 -10z m-1125 -8 c0
-15 -24 -32 -44 -32 -20 1 -20 1 3 20 24 21 41 26 41 12z m1172 -24 c-7 -7
-12 -8 -12 -2 0 14 12 26 19 19 2 -3 -1 -11 -7 -17z m288 0 c0 -15 -40 -28
-71 -21 -29 5 -30 7 -15 19 18 13 86 15 86 2z m-360 -8 c0 -5 -7 -10 -16 -10
-8 0 -12 5 -9 10 3 6 10 10 16 10 5 0 9 -4 9 -10z m-760 -24 c0 -7 12 -21 26
-31 21 -13 23 -19 13 -31 -16 -19 -8 -25 42 -30 50 -5 56 -9 39 -29 -18 -22 6
-20 36 4 20 16 30 17 65 9 31 -8 43 -8 52 2 9 10 9 11 0 6 -20 -11 -15 13 7
41 l20 26 1 -29 c2 -78 17 -96 61 -71 38 22 50 15 14 -8 -23 -15 -69 -79 -70
-97 -1 -4 -13 -19 -28 -33 -30 -28 -35 -41 -17 -47 8 -3 5 -10 -6 -22 -14 -14
-16 -22 -8 -35 11 -18 6 -71 -6 -71 -4 0 -12 5 -19 12 -9 9 -12 8 -12 -4 0 -8
-7 -21 -15 -28 -8 -7 -15 -22 -15 -33 0 -24 -57 -143 -82 -171 -10 -11 -18
-23 -18 -28 0 -4 -5 -8 -11 -8 -5 0 -7 5 -4 10 3 6 0 10 -8 10 -19 0 -42 -59
-24 -61 7 -1 15 -1 20 0 4 0 7 -11 6 -26 0 -16 -3 -22 -6 -15 -8 20 -22 14
-38 -18 -17 -34 -19 -44 -5 -35 6 3 10 2 10 -4 0 -5 -4 -13 -10 -16 -5 -3 -10
-14 -10 -23 0 -9 -15 -30 -34 -47 -36 -33 -45 -58 -51 -152 -2 -35 -6 -67 -10
-73 -3 -5 -2 -10 4 -10 5 0 15 8 20 18 6 9 11 12 11 5 0 -20 -12 -43 -22 -43
-6 0 -19 -10 -30 -22 l-20 -23 31 -3 c34 -4 39 -13 16 -32 -14 -11 -14 -16 -1
-35 13 -20 13 -24 -4 -41 -13 -13 -17 -27 -13 -43 6 -23 6 -23 24 10 10 19 27
52 38 73 21 43 81 79 81 50 0 -9 -13 -29 -30 -44 -35 -32 -39 -45 -10 -30 11
6 24 8 29 5 5 -3 11 0 13 7 3 7 14 9 32 4 21 -5 27 -12 24 -29 -2 -12 -9 -21
-16 -20 -6 2 -12 -6 -12 -17 0 -11 -7 -20 -15 -20 -8 0 -15 -9 -15 -20 0 -13
-10 -24 -27 -31 -15 -6 -31 -15 -35 -22 -5 -8 -9 -6 -14 6 -3 9 -10 17 -14 17
-12 0 -5 -31 9 -39 10 -7 10 -9 -2 -14 -7 -3 -20 -1 -27 3 -16 10 -48 -22 -56
-57 -4 -14 -14 -23 -25 -23 -10 0 -19 -7 -19 -15 0 -8 -4 -15 -9 -15 -5 0 -12
-8 -15 -18 -3 -9 -18 -31 -33 -48 -27 -30 -37 -44 -66 -96 -6 -13 -21 -33 -31
-45 -11 -13 -16 -23 -11 -23 5 0 -2 -11 -14 -24 -22 -23 -22 -25 -4 -35 10 -6
12 -11 5 -11 -7 0 -18 -12 -24 -27 -7 -16 -20 -40 -30 -54 -9 -14 -15 -29 -12
-32 6 -6 -14 -49 -28 -58 -5 -3 -11 -24 -13 -46 -6 -53 -19 -87 -45 -111 l-21
-19 26 -31 c14 -16 25 -32 25 -35 0 -2 -13 -10 -29 -17 -41 -17 -122 -150 -91
-150 6 0 21 5 33 12 31 16 139 40 112 25 -33 -20 -105 -99 -105 -116 -1 -13
-3 -13 -15 3 -8 11 -16 17 -16 13 -1 -4 -2 -11 -3 -16 0 -5 -4 -13 -8 -17 -13
-12 -9 -46 3 -38 7 4 10 1 7 -7 -3 -8 -11 -14 -19 -14 -23 -1 -39 -15 -39 -36
0 -10 -6 -19 -12 -19 -13 0 -67 -94 -72 -122 -1 -7 -5 -19 -10 -26 -4 -7 -5
-19 -2 -27 3 -8 -1 -27 -9 -43 -8 -16 -17 -48 -20 -73 -3 -24 -8 -52 -11 -61
-10 -32 11 -19 31 20 49 96 112 179 206 272 121 120 229 191 229 150 0 -5 -4
-10 -9 -10 -5 0 -13 -10 -16 -22 -4 -13 -24 -38 -44 -57 -20 -18 -28 -30 -18
-27 18 6 23 -10 9 -30 -4 -7 -27 -23 -52 -37 -24 -13 -46 -30 -48 -37 -3 -8 0
-10 7 -6 14 9 14 0 0 -26 -8 -15 -8 -19 0 -14 6 4 11 2 11 -3 0 -6 -4 -11 -8
-11 -4 0 -23 -14 -42 -31 -21 -18 -27 -28 -16 -25 14 5 17 2 12 -10 -4 -11 1
-24 14 -36 21 -20 27 -54 10 -60 -6 -2 -12 -13 -15 -26 -2 -12 -7 -27 -11 -34
-4 -7 -7 -29 -5 -50 1 -24 -4 -44 -14 -54 -8 -8 -15 -24 -15 -35 0 -10 -5 -19
-11 -19 -6 0 -9 7 -5 15 3 8 1 15 -5 15 -6 0 -9 -10 -7 -22 2 -15 -2 -23 -12
-23 -11 0 -15 -13 -15 -51 -1 -28 -9 -68 -20 -90 -10 -21 -20 -59 -21 -82 -2
-24 -7 -49 -13 -56 -13 -16 -9 -41 12 -64 24 -26 21 -35 -9 -29 -23 4 -25 2
-19 -23 3 -16 1 -48 -5 -72 -7 -23 -11 -45 -10 -47 1 -2 -4 -7 -10 -11 -8 -5
-8 -11 3 -21 18 -18 15 -59 -6 -70 -41 -23 -59 -60 -37 -74 6 -3 10 -17 10
-30 0 -13 -4 -27 -10 -30 -5 -3 -10 -1 -10 6 0 7 -7 20 -15 29 -12 13 -13 23
-4 48 6 18 8 40 4 50 -6 13 -10 10 -17 -18 -21 -77 -21 -91 -3 -104 11 -8 16
-20 12 -30 -4 -10 -1 -16 8 -16 15 0 21 -15 31 -75 3 -22 8 -43 10 -47 2 -4 8
-27 13 -51 6 -36 5 -44 -5 -40 -9 3 -14 -3 -14 -18 0 -13 -5 -31 -10 -39 -15
-23 -29 5 -23 48 4 28 2 34 -10 29 -11 -4 -16 6 -21 40 -3 26 -5 48 -3 49 2 2
15 -20 30 -49 16 -32 27 -44 27 -32 0 11 -9 38 -21 59 -11 21 -22 59 -25 84
-5 55 -21 68 -45 39 -22 -27 -24 -18 -5 27 12 29 12 38 0 61 -7 14 -13 29 -12
33 1 4 -3 16 -9 27 -9 16 -8 28 4 53 18 37 23 36 26 -4 3 -38 27 -44 27 -7 0
16 7 51 16 77 9 26 13 50 10 53 -3 4 0 13 8 22 7 9 17 27 21 41 8 25 8 25 -14
6 -11 -11 -19 -21 -17 -24 3 -2 -1 -11 -9 -19 -8 -8 -15 -24 -15 -35 0 -17 -2
-18 -15 -8 -12 10 -19 10 -27 2 -16 -16 -28 -15 -28 3 0 8 7 15 16 15 16 0 16
9 3 60 -2 8 3 14 11 15 20 0 25 34 6 41 -22 8 -20 42 4 82 22 36 20 39 -14 17
-22 -15 -23 -14 -21 22 1 21 7 48 13 60 15 27 15 66 1 80 -14 14 -31 92 -35
153 -1 25 -3 53 -3 63 -1 9 -8 17 -17 17 -8 0 -12 -4 -9 -10 3 -5 -2 -26 -11
-46 -14 -29 -15 -40 -6 -55 7 -10 12 -37 12 -58 0 -22 4 -42 8 -45 12 -7 14
-84 3 -90 -7 -5 -26 67 -22 87 0 4 -3 7 -7 7 -11 0 -36 78 -35 110 1 14 3 36
6 50 3 14 8 34 11 46 2 12 13 51 25 87 18 60 25 125 22 201 -1 19 -5 27 -14
23 -11 -4 -13 5 -9 41 4 42 3 45 -12 33 -23 -20 -26 -12 -14 42 6 32 18 53 34
63 22 15 23 22 14 64 0 3 -8 -4 -16 -15 -15 -20 -15 -20 -30 -1 -8 11 -12 28
-9 37 3 10 1 20 -4 23 -6 4 -8 13 -5 21 4 8 10 13 15 10 4 -3 5 -13 2 -23 -6
-15 -5 -15 14 1 16 14 22 15 26 5 9 -25 21 3 23 52 2 38 -1 47 -12 43 -17 -6
-17 -9 2 52 22 72 27 175 9 175 -10 0 -15 15 -17 53 -2 35 -7 51 -15 49 -18
-3 -16 13 2 28 8 7 15 21 15 31 0 11 7 19 15 19 10 0 15 -10 15 -31 0 -26 2
-29 14 -19 17 13 11 36 -17 67 -19 21 -21 21 -33 5 -23 -31 -29 14 -10 92 9
39 16 80 16 91 0 12 9 38 20 59 10 22 17 43 14 47 -3 5 3 9 13 9 15 0 18 11
21 75 3 66 1 74 -14 68 -14 -5 -15 -1 -10 23 4 16 8 40 11 54 l4 25 -23 -28
c-12 -15 -25 -24 -29 -21 -11 11 -8 54 4 54 5 0 7 -4 4 -10 -3 -5 -2 -10 4
-10 9 0 42 51 41 65 -2 52 0 55 25 49 21 -5 25 -3 25 14 0 24 16 37 25 22 4
-6 19 5 36 26 38 48 37 63 -2 30 -38 -32 -49 -33 -49 -3 0 13 -5 28 -12 35 -9
9 -6 22 12 57 13 25 27 48 32 51 10 7 -2 -58 -15 -73 -7 -9 -5 -13 5 -13 14 0
38 39 38 61 0 5 8 27 18 48 16 32 17 41 5 56 -10 14 -10 21 -1 26 13 8 20 31
20 72 0 15 4 27 9 27 10 0 10 -2 13 -41 1 -32 25 -62 43 -55 9 4 13 -3 13 -19
0 -14 -6 -25 -13 -25 -8 0 -22 -16 -33 -35 -18 -34 -18 -35 0 -48 17 -12 17
-14 2 -20 -13 -5 -14 -11 -4 -32 12 -28 36 -33 44 -10 8 20 24 19 24 -1 0 -20
27 -47 40 -39 5 3 10 19 10 35 0 16 5 32 12 36 7 4 8 3 4 -4 -11 -18 3 -14 36
9 30 22 50 21 24 0 -11 -9 -13 -19 -5 -38 12 -32 4 -45 -24 -38 -14 4 -34 -3
-57 -20 -29 -21 -36 -23 -38 -10 -2 8 -8 12 -14 9 -6 -4 -17 1 -25 11 -11 16
-13 16 -13 3 0 -8 -7 -21 -15 -28 -22 -18 -11 -24 16 -9 20 10 25 9 41 -10 16
-21 45 -21 33 0 -4 5 1 9 11 9 11 0 15 -6 11 -20 -3 -13 0 -20 9 -20 9 0 14
11 14 29 0 16 8 35 18 42 9 7 14 9 9 4 -4 -4 0 -16 8 -25 14 -16 14 -19 0 -33
-8 -9 -15 -20 -15 -26 0 -12 -11 -14 -47 -11 -24 2 -24 0 -27 -70 -3 -57 3
-62 36 -30 16 17 34 30 39 30 5 0 14 12 20 26 13 37 19 27 12 -24 -5 -36 -9
-42 -29 -42 -12 0 -26 -5 -29 -11 -4 -6 -1 -10 6 -8 28 3 34 -2 34 -26 0 -14
-4 -25 -10 -25 -5 0 -3 -5 5 -10 12 -8 12 -12 2 -18 -7 -5 -14 -19 -17 -33
l-4 -24 20 25 c11 14 36 42 55 63 20 22 33 45 30 53 -3 8 0 14 6 14 7 0 7 5
-2 14 -16 20 -9 62 10 59 9 -2 30 9 48 25 31 26 32 28 19 62 -6 19 -16 42 -22
50 -7 12 -3 11 18 -2 30 -21 47 -24 29 -6 -17 17 -15 29 5 26 10 -2 24 10 36
30 17 28 18 35 6 43 -10 6 -7 9 13 9 17 0 31 8 38 19 13 25 13 71 0 71 -5 0
-10 -6 -10 -13 0 -7 -9 -18 -20 -25 -17 -10 -20 -10 -20 2 0 31 22 65 38 58
12 -4 14 -1 9 13 -6 15 -3 17 23 12 25 -6 30 -3 30 13 0 11 9 28 20 37 24 21
26 33 4 33 -8 0 -13 -4 -10 -9 3 -4 -3 -16 -14 -26 -19 -17 -20 -17 -20 1 0
16 -3 15 -24 -8 -22 -27 -44 -39 -31 -18 12 19 -14 10 -35 -12 -20 -21 -21
-21 -18 -4 1 10 -3 21 -9 23 -8 3 -13 -4 -13 -16 0 -22 -24 -29 -36 -10 -9 15
-24 -9 -24 -39 0 -13 -7 -30 -15 -38 -12 -13 -15 -9 -25 27 l-11 42 -27 -30
c-15 -16 -38 -38 -51 -49 l-24 -19 8 25 c6 20 5 23 -6 13 -22 -22 -32 -14 -15
12 9 13 16 33 16 43 0 10 10 24 23 30 17 8 18 11 5 11 -9 1 -20 6 -23 11 -9
14 13 40 29 34 6 -2 19 1 29 8 15 12 14 16 -11 54 -24 35 -28 50 -26 105 1 35
-3 70 -9 77 -5 7 -7 15 -4 19 3 3 1 20 -6 37 -16 37 -12 93 7 115 7 9 11 22 9
29 -3 6 0 12 6 12 6 0 11 -6 11 -12 0 -26 21 -88 30 -88 5 0 8 12 6 28 -1 18
12 47 42 91 24 35 46 75 48 89 6 33 22 62 34 62 6 0 10 7 10 15 0 18 20 20 20
3 0 -7 9 -2 20 12 10 14 17 26 15 28 -2 2 6 18 18 37 12 18 30 47 39 64 22 39
42 41 35 4 -23 -106 -25 -101 37 -79 39 14 54 30 61 67 2 12 9 27 16 35 6 8 9
20 6 29 -4 8 3 21 15 29 20 14 20 17 6 33 -12 13 -14 23 -7 36 12 20 29 23 29
3z m-511 -47 c-9 -5 -15 -4 -18 2 -2 6 3 15 10 20 9 5 15 4 18 -2 2 -6 -3 -15
-10 -20z m97 -4 c-4 -24 -16 -30 -16 -7 0 12 4 22 9 22 5 0 8 -7 7 -15z m754
-29 c-14 -14 -24 0 -16 21 6 15 8 15 16 3 6 -9 5 -19 0 -24z m375 24 c8 -13
-5 -13 -25 0 -13 8 -13 10 2 10 9 0 20 -4 23 -10z m-1205 -24 c0 -13 -7 -26
-15 -30 -8 -3 -15 -14 -15 -25 0 -11 -8 -28 -19 -38 -10 -10 -23 -27 -29 -38
-10 -18 -11 -18 -12 -2 0 24 48 117 60 117 6 0 10 9 10 20 0 11 5 20 10 20 6
0 10 -11 10 -24z m950 5 c0 -5 -12 -16 -26 -26 -26 -17 -26 -10 -1 23 11 14
27 16 27 3z m-1156 -22 c-6 -11 -24 -2 -24 11 0 5 7 7 15 4 8 -4 12 -10 9 -15z
m1036 -19 c0 -5 -4 -10 -10 -10 -5 0 -10 5 -10 10 0 6 5 10 10 10 6 0 10 -4
10 -10z m-1020 -15 c0 -8 -4 -15 -10 -15 -5 0 -10 7 -10 15 0 8 5 15 10 15 6
0 10 -7 10 -15z m100 11 c0 -2 -9 -6 -20 -9 -11 -3 -20 -1 -20 4 0 5 9 9 20 9
11 0 20 -2 20 -4z m86 -33 c-10 -10 -19 5 -10 18 6 11 8 11 12 0 2 -7 1 -15
-2 -18z m-126 -13 c0 -5 -5 -10 -11 -10 -5 0 -7 5 -4 10 3 6 8 10 11 10 2 0 4
-4 4 -10z m1322 -32 c-6 -6 -15 -8 -19 -4 -4 4 -1 11 7 16 19 12 27 3 12 -12z
m-312 8 c0 -2 -9 -6 -20 -9 -11 -3 -20 -1 -20 4 0 5 9 9 20 9 11 0 20 -2 20
-4z m-660 -36 c0 -5 -4 -10 -10 -10 -5 0 -10 5 -10 10 0 6 5 10 10 10 6 0 10
-4 10 -10z m-386 -11 c14 12 16 10 16 -7 0 -12 -5 -24 -12 -28 -11 -7 -38 21
-38 40 0 6 4 5 9 -3 8 -12 12 -12 25 -2z m31 -58 c-3 -6 -11 -11 -17 -11 -6 0
-6 6 2 15 14 17 26 13 15 -4z m-149 -111 c-4 -24 -2 -40 4 -41 5 -1 16 -2 22
-3 7 0 13 -12 13 -26 0 -17 7 -26 25 -30 14 -4 24 -11 23 -16 0 -5 -3 -18 -5
-29 -1 -11 -7 -23 -13 -27 -16 -12 -25 2 -15 23 8 14 7 19 -2 19 -27 0 -88
123 -68 135 5 3 7 12 3 20 -3 8 0 15 7 15 9 0 11 -11 6 -40z m-79 5 c0 -8 -7
-15 -15 -15 -12 0 -12 3 -2 15 7 8 13 15 15 15 1 0 2 -7 2 -15z m293 5 c0 -5
-5 -10 -11 -10 -5 0 -7 5 -4 10 3 6 8 10 11 10 2 0 4 -4 4 -10z m1206 -28
c-22 -5 -30 3 -21 18 5 8 11 7 22 -2 15 -12 14 -13 -1 -16z m-17 -124 c-5 -10
-14 -18 -19 -18 -14 0 -12 34 2 48 17 17 30 -6 17 -30z m-421 -8 c-20 -31 -40
-35 -26 -5 6 14 17 25 25 25 11 0 11 -4 1 -20z m-997 -93 c-13 -13 -15 1 -4
30 7 17 8 17 11 -1 2 -10 -1 -23 -7 -29z m38 -9 c-17 -31 -23 -9 -8 28 9 22
13 25 16 12 2 -9 -1 -27 -8 -40z m1344 20 c-5 -10 -33 10 -33 23 0 5 9 4 19
-3 11 -7 17 -16 14 -20z m-1433 12 c0 -5 -5 -10 -11 -10 -5 0 -7 5 -4 10 3 6
8 10 11 10 2 0 4 -4 4 -10z m-50 -115 c-6 -19 -16 -35 -22 -35 -12 0 -6 40 13
85 12 28 13 29 17 7 2 -12 -2 -38 -8 -57z m114 20 c-4 -8 -8 -15 -10 -15 -2 0
-4 7 -4 15 0 8 4 15 10 15 5 0 7 -7 4 -15z m95 -116 c-16 -10 -23 -4 -14 10 3
6 11 8 17 5 6 -4 5 -9 -3 -15z m91 -6 c0 -5 -5 -15 -10 -23 -7 -12 -9 -10 -7
8 1 19 17 33 17 15z m-208 -55 c-7 -7 -12 -8 -12 -2 0 14 12 26 19 19 2 -3 -1
-11 -7 -17z m303 -8 c3 -5 2 -10 -4 -10 -5 0 -13 5 -16 10 -3 6 -2 10 4 10 5
0 13 -4 16 -10z m965 -51 c0 -5 -4 -9 -10 -9 -5 0 -10 7 -10 16 0 8 5 12 10 9
6 -3 10 -10 10 -16z m-500 -14 c-7 -9 -15 -13 -17 -11 -7 7 7 26 19 26 6 0 6
-6 -2 -15z m-732 -27 c-6 -16 -36 -34 -44 -25 -9 9 15 37 33 37 8 0 13 -5 11
-12z m522 -15 c-1 -10 -36 -53 -43 -53 -9 0 -1 28 12 44 14 17 31 21 31 9z
m-500 -53 c0 -6 -26 -35 -53 -57 -22 -17 -27 -5 -12 24 8 15 12 29 10 32 -1 3
10 6 26 7 16 1 29 -2 29 -6z m410 -9 c0 -6 -4 -13 -10 -16 -5 -3 -10 1 -10 9
0 9 5 16 10 16 6 0 10 -4 10 -9z m-510 -25 c0 -3 -4 -8 -10 -11 -5 -3 -10 -1
-10 4 0 6 5 11 10 11 6 0 10 -2 10 -4z m-85 -20 c6 3 12 -2 12 -11 0 -8 -8
-15 -17 -15 -9 0 -22 -6 -29 -12 -11 -11 -13 -10 -7 5 3 10 6 26 6 35 0 12 3
13 11 5 6 -6 17 -9 24 -7z m470 2 c36 -16 31 -25 -17 -31 -51 -7 -57 -3 -33
23 21 24 18 23 50 8z m495 -3 c0 -8 -4 -15 -10 -15 -5 0 -7 7 -4 15 4 8 8 15
10 15 2 0 4 -7 4 -15z m-616 -10 c-4 -8 -10 -12 -15 -9 -11 6 -2 24 11 24 5 0
7 -7 4 -15z m181 -15 c-3 -5 -11 -10 -16 -10 -6 0 -7 5 -4 10 3 6 11 10 16 10
6 0 7 -4 4 -10z m108 -65 c-7 -21 -13 -19 -13 6 0 11 4 18 10 14 5 -3 7 -12 3
-20z m308 -8 c-16 -16 -26 0 -10 19 9 11 15 12 17 4 2 -6 -1 -17 -7 -23z
m-1024 -9 c-3 -8 -6 -5 -6 6 -1 11 2 17 5 13 3 -3 4 -12 1 -19z m166 -34 c-3
-8 -9 -14 -14 -14 -14 0 -22 27 -14 48 6 16 7 16 20 -1 8 -11 11 -25 8 -33z
m407 1 c0 -2 -10 -10 -22 -16 -21 -11 -22 -11 -9 4 13 16 31 23 31 12z m535
-14 c3 -5 1 -12 -5 -16 -5 -3 -10 1 -10 9 0 18 6 21 15 7z m-927 -43 c-3 -7
-13 -15 -24 -17 -16 -3 -17 -1 -5 13 16 19 34 21 29 4z m492 -12 c0 -2 -8 -10
-17 -17 -16 -13 -17 -12 -4 4 13 16 21 21 21 13z m900 -16 c0 -9 -31 -23 -37
-16 -3 3 1 11 8 19 14 15 29 13 29 -3z m-982 -22 c-2 -6 -10 -14 -16 -16 -7
-2 -10 2 -6 12 7 18 28 22 22 4z m4052 -127 c0 -6 -4 -13 -10 -16 -5 -3 -10 1
-10 9 0 9 5 16 10 16 6 0 10 -4 10 -9z m-3280 -323 c0 -5 8 -4 19 1 10 6 21 8
24 5 3 -4 27 -7 54 -9 128 -8 228 -43 268 -94 11 -14 27 -33 35 -41 8 -8 15
-29 16 -45 1 -31 21 -81 40 -102 20 -21 82 -158 87 -193 3 -19 10 -48 15 -65
12 -43 15 -132 3 -139 -14 -9 -25 14 -13 26 8 8 6 18 -5 34 -8 13 -12 24 -9
24 4 0 -3 18 -14 40 -11 21 -20 49 -20 60 0 57 -84 168 -161 211 -16 9 -34 21
-41 26 -7 6 -20 10 -28 10 -8 0 -40 3 -70 7 -30 3 -89 8 -130 11 -98 7 -142
23 -134 47 8 26 -64 98 -77 77 -7 -12 -9 -12 -9 0 0 8 10 25 22 38 18 20 19
23 5 23 -23 0 -21 26 2 42 21 15 121 19 121 6z m800 -23 c0 -21 -19 -28 -35
-15 -20 16 -19 28 3 33 22 5 32 -1 32 -18z m-2160 -140 c-7 -9 -15 -13 -17
-11 -7 7 7 26 19 26 6 0 6 -6 -2 -15z m1663 -320 c17 -12 16 -15 -25 -33 l-43
-19 38 0 c20 1 37 4 37 8 0 11 94 29 118 22 31 -8 37 -44 18 -102 -9 -28 -16
-57 -16 -65 0 -19 32 -21 62 -5 23 12 27 10 34 -22 7 -29 7 -38 0 -64 -2 -11
-5 -26 -5 -33 -1 -7 -12 -23 -25 -35 -21 -20 -27 -37 -41 -120 -3 -15 -7 -38
-9 -51 -3 -14 2 -30 10 -37 8 -6 14 -20 14 -31 0 -42 -52 -108 -86 -108 -11 0
-41 -13 -67 -30 -26 -16 -51 -30 -55 -30 -18 0 -93 -89 -102 -121 -7 -24 -16
-35 -30 -36 -19 -2 -220 -196 -220 -213 0 -7 -91 -109 -160 -180 -47 -49 -80
-90 -80 -100 0 -5 -4 -10 -9 -10 -12 0 -101 -183 -107 -222 -21 -126 -9 -212
39 -291 16 -27 30 -59 30 -73 0 -29 13 -32 20 -4 8 30 25 24 42 -16 10 -24 19
-33 27 -28 10 6 10 4 0 -8 -11 -14 -8 -21 16 -50 l30 -33 -19 -50 -18 -50 22
28 c20 24 25 26 41 14 20 -15 14 -37 -10 -37 -14 0 -18 -12 -15 -38 1 -8 -3
-20 -10 -28 -15 -18 -5 -18 32 2 30 15 77 16 71 1 -2 -4 3 -19 12 -32 10 -15
12 -25 5 -27 -8 -3 -6 -19 5 -51 9 -26 16 -57 16 -67 0 -11 4 -20 9 -20 17 0
40 -46 30 -61 -8 -12 -12 -11 -23 4 -7 9 -16 17 -20 17 -10 0 -7 -48 4 -55 6
-3 10 -15 10 -26 0 -18 -5 -20 -34 -16 -19 3 -46 -1 -60 -9 -15 -7 -26 -11
-26 -8 0 10 31 36 45 38 9 1 15 5 15 9 0 4 0 11 0 16 0 4 -11 6 -24 4 -29 -6
-69 14 -63 30 2 7 0 23 -5 36 -5 15 -4 28 2 37 8 9 7 20 -3 40 l-14 28 0 -27
c0 -26 -21 -62 -31 -53 -2 3 -14 0 -25 -5 -15 -8 -22 -8 -28 2 -13 20 -11 29
5 29 15 0 28 24 19 34 -4 3 -13 0 -21 -7 -10 -8 -8 2 7 30 11 23 21 52 21 65
0 20 -2 20 -26 -9 -14 -18 -26 -35 -26 -40 0 -4 -4 -14 -10 -21 -8 -9 -14 -9
-24 -1 -17 14 -19 33 -3 23 8 -4 9 1 4 17 -12 37 -14 90 -4 83 15 -9 10 10
-15 62 -14 27 -25 41 -25 32 -1 -9 -4 -23 -7 -32 -4 -11 -1 -16 10 -16 23 0
20 -17 -5 -23 -17 -5 -24 2 -40 36 -10 23 -19 51 -19 61 0 11 -11 47 -24 80
-13 34 -26 77 -29 96 -3 19 -11 50 -17 68 -12 32 -10 70 5 105 5 12 3 17 -8
17 -18 0 -27 21 -27 65 0 19 6 35 14 38 10 4 13 19 11 52 -2 25 -5 49 -8 52
-3 2 1 23 9 45 8 22 14 49 14 59 0 10 13 31 30 45 25 23 27 28 15 41 -16 15
-14 18 28 65 14 14 16 23 8 31 -8 8 -11 7 -11 -3 0 -11 -3 -11 -12 -2 -15 15
-6 24 33 28 18 2 38 9 45 15 16 13 19 55 4 64 -13 8 -51 -18 -46 -32 3 -7 -1
-10 -10 -6 -7 3 -14 15 -14 27 0 12 -5 27 -11 33 -13 13 -5 43 11 43 5 0 10
-9 10 -21 0 -11 4 -18 9 -14 12 7 7 36 -12 67 -7 13 -13 29 -12 36 2 6 3 17 4
23 0 6 8 9 16 5 21 -8 19 7 -5 27 -25 21 -40 22 -40 2 0 -8 -4 -15 -10 -15 -5
0 -7 13 -4 28 4 19 1 32 -10 41 -12 10 -13 17 -6 26 8 9 6 14 -5 19 -13 5 -14
10 -2 38 8 20 11 44 6 61 -5 20 -4 27 7 27 11 0 12 4 4 19 -7 14 -7 27 2 46 9
21 9 31 0 46 -7 11 -10 24 -6 30 4 7 -5 9 -25 6 -26 -4 -31 -2 -31 14 0 11 7
22 15 25 8 4 13 10 10 14 -3 5 3 13 12 19 13 8 15 13 6 18 -14 10 -28 63 -16
63 5 0 14 -5 20 -11 9 -9 11 -7 7 8 -3 12 -1 24 5 27 19 12 12 34 -11 38 -16
2 -23 10 -23 24 0 11 -6 29 -14 38 -12 14 -12 19 -1 26 7 4 10 15 7 23 -5 14
33 57 52 57 5 0 22 16 38 35 17 22 38 36 53 37 20 2 121 -10 153 -18 4 -1 12
-2 18 -3 5 0 7 -5 4 -11 -3 -6 5 -10 19 -10 13 0 36 -4 50 -10 47 -17 175 -27
231 -17 17 3 56 8 89 11 67 7 132 24 160 42 10 7 25 10 32 7 22 -8 16 25 -6
37 -11 6 -18 15 -16 19 3 4 -5 6 -17 5 -12 -1 -26 -3 -31 -3 -6 -1 -5 -6 2
-13 7 -7 12 -17 12 -22 -1 -6 -8 -2 -18 9 -15 18 -30 20 -134 21 -81 0 -121 4
-132 13 -11 9 -16 10 -16 2 0 -18 -35 -13 -54 8 -10 11 -15 25 -11 30 3 6 -2
25 -12 42 -17 29 -17 31 0 43 18 14 63 10 84 -6 6 -5 62 -7 123 -5 86 4 116 8
128 21 20 20 70 20 95 1z m317 -75 c0 -5 -4 -10 -10 -10 -5 0 -10 5 -10 10 0
6 5 10 10 10 6 0 10 -4 10 -10z m-1935 -20 c3 -5 -1 -10 -10 -10 -9 0 -13 5
-10 10 3 6 8 10 10 10 2 0 7 -4 10 -10z m1916 -13 c-1 -12 -15 -9 -19 4 -3 6
1 10 8 8 6 -3 11 -8 11 -12z m-1277 -16 c8 -13 -53 -49 -95 -57 -42 -8 -33 2
29 38 54 30 59 31 66 19z m-158 -86 c-26 -19 -42 -19 -26 0 7 8 20 15 29 15
13 -1 13 -3 -3 -15z m-758 -503 c-15 -48 -30 -98 -33 -112 -3 -14 -9 -39 -13
-55 -10 -32 -8 -221 2 -266 3 -14 13 -45 21 -69 8 -23 15 -50 15 -59 -1 -25
-36 26 -51 74 -7 22 -15 45 -18 50 -9 16 -11 36 -15 120 -3 69 0 104 18 195 1
8 11 42 21 75 10 33 19 65 21 70 1 6 10 27 19 48 12 30 19 36 29 28 11 -9 8
-27 -16 -99z m2092 -127 c0 -8 9 -19 20 -25 16 -8 20 -20 19 -48 -2 -43 -20
-92 -34 -93 -44 -4 -70 -3 -70 4 0 5 -8 13 -17 18 -10 6 -18 21 -18 34 0 13
-10 31 -22 40 -16 12 -19 19 -10 22 6 3 12 12 12 21 0 14 -2 14 -9 3 -5 -7
-14 -11 -20 -7 -8 5 -8 12 0 24 15 24 149 30 149 7z m-1085 -115 c3 -5 -3 -10
-15 -10 -12 0 -18 5 -15 10 3 6 10 10 15 10 5 0 12 -4 15 -10z m2710 0 c3 -5
2 -10 -4 -10 -5 0 -13 5 -16 10 -3 6 -2 10 4 10 5 0 13 -4 16 -10z m1105 -288
c0 -15 -2 -15 -10 -2 -13 20 -13 33 0 25 6 -3 10 -14 10 -23z m-4524 -49 c-10
-11 -36 -12 -36 -2 0 5 10 9 22 9 12 0 18 -3 14 -7z m290 -140 c-7 -7 -26 7
-26 19 0 6 6 6 15 -2 9 -7 13 -15 11 -17z m4164 -12 c0 -5 7 -17 16 -26 9 -8
13 -22 10 -30 -8 -21 -35 -19 -35 3 1 9 -2 27 -6 40 -5 14 -3 22 4 22 6 0 11
-4 11 -9z m-2444 -167 c-3 -9 -6 -18 -6 -20 0 -3 -4 -3 -10 1 -11 7 -2 35 12
35 6 0 7 -7 4 -16z m-242 -24 c9 0 15 -4 11 -9 -9 -15 -65 8 -65 27 0 13 2 13
18 -1 10 -10 26 -17 36 -17z m-1524 -166 c0 -8 -5 -12 -10 -9 -6 4 -8 11 -5
16 9 14 15 11 15 -7z m2123 -19 c1 -5 -6 -11 -15 -13 -11 -2 -18 3 -18 13 0
17 30 18 33 0z m65 -29 c1 -14 -1 -26 -4 -26 -11 0 -34 29 -34 43 0 39 34 24
38 -17z m1973 21 c-13 -13 -26 -3 -16 12 3 6 11 8 17 5 6 -4 6 -10 -1 -17z
m-4301 -21 c0 -3 -4 -8 -10 -11 -5 -3 -10 -1 -10 4 0 6 5 11 10 11 6 0 10 -2
10 -4z m2398 -13 c7 -7 8 -13 3 -13 -16 0 -41 12 -41 19 0 13 25 9 38 -6z
m1901 -37 c-9 -8 -10 -7 -5 7 3 10 7 24 7 30 1 7 3 4 6 -7 3 -10 -1 -23 -8
-30z m-1522 -21 c15 -10 23 -11 25 -3 7 20 82 -21 102 -55 l18 -32 18 23 c22
27 40 28 67 3 17 -16 20 -30 19 -77 -2 -50 -6 -60 -34 -85 -29 -26 -46 -33
-77 -31 -13 1 -57 -67 -50 -78 8 -14 41 -4 64 19 20 20 33 25 58 22 6 -1 14 3
18 9 3 5 1 10 -4 10 -6 0 -11 7 -11 15 0 10 9 13 31 10 24 -3 36 3 57 27 25
27 116 93 131 93 3 0 22 8 41 17 56 26 114 32 130 13 10 -12 10 -19 2 -27 -9
-9 -12 -9 -12 0 0 7 -4 12 -10 12 -13 0 -13 -67 0 -75 10 -6 8 -23 -12 -103
-9 -36 -8 -45 7 -62 18 -19 15 -30 -16 -65 -24 -27 -29 -74 -13 -107 18 -34
18 -41 0 -35 -24 10 -27 -22 -3 -34 12 -7 26 -18 30 -25 12 -22 30 -16 24 7
-4 16 -3 18 8 9 15 -13 15 -87 0 -81 -6 2 -18 17 -27 32 -10 16 -22 29 -26 29
-8 0 -34 -68 -37 -95 0 -5 -6 -9 -13 -8 -21 5 -13 -25 8 -32 11 -3 20 -11 20
-16 0 -6 4 -8 9 -4 11 6 25 -31 17 -44 -7 -11 -42 -3 -76 18 l-25 15 24 -27
c14 -15 34 -27 45 -27 16 0 18 -2 7 -9 -7 -5 -22 -6 -32 -4 -28 8 -23 -16 5
-27 29 -11 43 -30 22 -30 -9 0 -17 -4 -17 -10 -1 -5 -2 -15 -3 -20 0 -6 -8
-15 -16 -20 -11 -7 -12 -12 -3 -21 6 -6 9 -17 7 -24 -3 -7 5 -15 18 -19 19 -5
20 -8 8 -15 -16 -11 -50 13 -50 36 0 7 -5 13 -11 13 -6 0 -9 -12 -7 -27 2 -16
8 -27 14 -26 25 5 47 -37 50 -97 3 -62 -10 -87 -26 -48 -12 29 -49 76 -50 62
0 -5 7 -19 15 -30 20 -27 20 -51 0 -34 -13 10 -15 9 -15 -9 0 -11 5 -21 11
-21 8 0 10 -13 6 -37 -4 -20 -2 -42 4 -49 7 -9 4 -14 -11 -19 -18 -6 -20 -12
-15 -33 6 -26 6 -26 -14 -8 -11 10 -19 21 -19 25 5 17 -14 81 -24 81 -6 0 -8
-11 -4 -30 4 -21 2 -30 -7 -30 -8 0 -14 -14 -15 -35 -7 -100 -9 -103 -42 -50
-12 19 -27 35 -33 35 -8 0 -7 -4 1 -12 7 -7 12 -18 12 -26 0 -8 7 -20 17 -27
11 -8 14 -18 8 -31 -5 -10 -10 -29 -11 -41 -3 -26 -24 -67 -31 -60 -2 3 -6 18
-7 34 -10 96 -19 152 -26 148 -4 -2 -6 -20 -5 -40 2 -40 -18 -48 -30 -12 -8
22 -8 22 -12 -3 -7 -38 -21 -46 -29 -17 -6 26 -26 28 -23 4 6 -50 -17 -80 -28
-37 -9 33 -20 23 -20 -17 1 -29 -4 -40 -21 -49 -15 -8 -18 -14 -11 -21 16 -16
1 -37 -16 -23 -17 14 -24 2 -23 -38 1 -42 -5 -47 -36 -27 -21 14 -25 23 -21
52 2 19 7 44 11 55 8 26 -14 52 -32 38 -9 -8 -15 -7 -22 6 -6 11 -11 13 -16 5
-13 -20 -25 -12 -44 32 -19 41 -72 101 -72 80 0 -6 7 -16 16 -24 23 -19 65
-107 54 -114 -5 -3 -14 4 -21 16 -10 20 -12 21 -21 5 -6 -10 -16 -15 -28 -11
-12 4 -19 -1 -23 -14 -3 -14 -11 -18 -26 -14 -12 3 -22 9 -22 14 -1 5 -3 14
-4 19 -1 6 -3 19 -4 30 0 11 -5 20 -11 20 -13 0 -13 -46 0 -71 7 -13 7 -19 0
-19 -5 0 -10 4 -10 10 0 17 -41 33 -54 20 -8 -9 -7 -11 4 -8 11 2 16 -8 18
-41 l3 -43 -27 21 c-29 23 -57 30 -36 9 18 -18 15 -34 -7 -35 -14 -1 -21 6
-23 22 -3 28 -28 20 -32 -10 -3 -23 -26 -32 -26 -11 0 9 -6 16 -14 16 -10 0
-12 -7 -8 -22 3 -14 2 -19 -6 -14 -7 4 -15 1 -18 -8 -3 -8 -12 -12 -20 -9 -10
4 -19 -5 -27 -26 -14 -38 -30 -41 -21 -3 9 36 22 52 40 45 12 -4 12 0 0 35 -8
22 -13 42 -11 44 2 1 -7 10 -19 20 -22 16 -22 16 -18 -13 5 -36 -17 -59 -57
-59 -29 0 -30 1 -21 26 6 15 19 39 30 54 11 16 20 34 20 42 -1 8 -4 7 -11 -4
-5 -10 -16 -18 -23 -18 -8 0 -16 -9 -19 -20 -8 -31 -25 -23 -33 15 -3 19 -10
38 -15 41 -12 7 -11 -27 0 -45 5 -8 7 -21 4 -29 -4 -9 -13 1 -26 29 -17 38
-20 41 -29 23 -14 -25 -39 -45 -49 -38 -5 3 -9 18 -9 34 0 16 -6 35 -14 43 -8
8 -12 24 -9 40 5 27 -11 38 -20 15 -4 -8 -6 -7 -6 3 -1 9 6 22 14 29 20 16 19
34 -1 26 -22 -9 -54 11 -54 34 0 22 -26 28 -32 8 -3 -8 -12 -5 -28 10 -22 20
-22 22 -4 23 10 1 26 0 33 -1 11 -1 12 2 4 12 -21 27 6 85 34 70 13 -8 113 -4
122 4 2 2 -10 7 -27 10 -18 4 -32 11 -32 16 0 6 7 8 15 4 9 -3 15 0 15 9 0 9
-9 15 -21 15 -18 0 -19 3 -9 15 10 12 8 21 -7 47 -23 39 -20 79 5 74 9 -1 30
-7 46 -11 24 -6 33 -4 47 13 15 19 18 20 29 7 7 -8 13 -32 14 -53 1 -48 22
-78 42 -61 22 18 17 49 -7 49 -31 0 -18 23 19 35 20 6 31 14 27 22 -3 7 -8 20
-11 28 -3 8 -1 15 5 15 6 0 11 -5 11 -11 0 -5 8 -9 18 -8 9 1 34 -6 54 -16 36
-18 38 -18 58 0 23 21 27 55 5 55 -8 0 -15 9 -15 20 0 11 7 20 15 20 9 0 12 6
8 16 -5 14 -3 15 15 5 12 -7 22 -9 22 -5 0 4 9 -1 20 -11 11 -10 20 -25 20
-33 0 -11 7 -12 28 -7 15 4 33 8 40 8 17 1 15 7 -10 34 -17 18 -19 26 -10 35
7 7 12 19 12 29 0 13 9 16 44 15 24 0 51 6 60 13 22 19 21 61 -2 61 -10 0 -27
7 -38 15 -24 18 -51 19 -57 3 -4 -8 -6 -6 -7 5 -4 33 -5 35 -12 43 -5 4 -8 16
-8 26 0 11 -4 17 -9 13 -5 -3 -12 -1 -16 5 -10 16 -28 12 -22 -5 4 -8 1 -17
-5 -21 -7 -5 -9 2 -6 20 5 22 1 29 -19 37 -13 5 -39 10 -56 10 -18 1 -24 3
-15 6 9 2 20 13 23 24 4 11 10 17 14 15 4 -3 13 0 21 5 13 8 13 11 -2 19 -23
14 -11 42 16 39 33 -2 46 0 44 9 -2 13 14 42 25 42 6 0 19 -7 29 -17 11 -9 18
-11 18 -5 0 7 -5 12 -12 12 -6 0 -8 3 -5 7 4 3 2 12 -5 20 -22 27 1 24 26 -4
14 -15 26 -22 26 -15 0 7 4 11 9 8 4 -3 21 -2 38 3 20 6 37 4 54 -4 26 -14 43
-10 32 8 -3 6 9 1 28 -11 31 -19 38 -20 55 -8 21 15 24 16 55 16 13 0 23 8 26
20 5 19 7 19 23 5 16 -14 19 -14 34 11 14 20 23 24 42 20 30 -8 23 16 -9 31
-99 45 -96 45 -103 17 -7 -25 -11 -26 -84 -10 -8 2 -21 -1 -28 -7 -7 -5 -40
-10 -75 -12 -49 -1 -67 3 -84 18 -19 17 -25 18 -39 7 -16 -14 -114 -31 -114
-21 0 3 -17 7 -38 8 -20 0 -53 3 -72 5 -19 3 -50 -1 -67 -9 -18 -7 -35 -13
-38 -13 -25 0 -26 -3 -5 -12 14 -6 31 -10 38 -9 13 2 18 -48 5 -50 -43 -8 -91
-4 -106 9 -16 14 -16 16 -1 34 16 17 15 18 -17 19 -19 1 -41 3 -49 4 -8 1 -27
3 -43 4 -41 2 -52 34 -38 113 13 66 18 90 22 98 1 3 3 10 3 15 4 26 32 74 50
85 26 16 107 14 149 -4 28 -11 39 -10 97 10 60 22 118 36 215 53 71 12 327 2
352 -14z m-2787 5 c0 -5 -5 -10 -11 -10 -5 0 -7 5 -4 10 3 6 8 10 11 10 2 0 4
-4 4 -10z m4134 -73 c2 -38 0 -44 -16 -39 -14 3 -16 7 -7 18 9 11 8 14 -4 14
-17 0 -13 24 7 46 15 16 17 12 20 -39z m-2268 -14 c38 -57 20 -209 -29 -244
-14 -10 -49 2 -82 27 -28 21 -30 27 -29 82 1 33 5 65 9 72 4 6 4 14 1 17 -10
10 25 64 47 73 36 15 60 7 83 -27z m-176 -43 c-1 -12 -4 -11 -15 4 -8 10 -12
23 -8 29 7 11 23 -12 23 -33z m2481 13 c-8 -15 -10 -15 -11 -2 0 17 10 32 18
25 2 -3 -1 -13 -7 -23z m-2521 -14 c0 -6 -4 -7 -10 -4 -5 3 -10 11 -10 16 0 6
5 7 10 4 6 -3 10 -11 10 -16z m2366 -26 c-1 -27 -8 -61 -14 -76 -7 -16 -10
-33 -7 -37 3 -5 -4 -14 -15 -20 -11 -6 -20 -18 -20 -26 0 -9 -7 -22 -16 -31
-9 -9 -14 -29 -13 -47 2 -17 -2 -40 -7 -51 -5 -11 -9 -32 -8 -47 1 -20 -4 -28
-16 -28 -23 0 -42 -24 -44 -55 0 -14 -8 -28 -17 -30 -9 -3 -22 -19 -29 -35 -6
-16 -19 -31 -27 -34 -22 -9 -8 42 20 72 20 22 20 22 1 37 -16 13 -17 16 -4 25
8 5 12 10 8 10 -4 0 -3 11 2 24 5 13 6 34 3 45 l-6 22 -23 -22 c-13 -12 -26
-20 -29 -18 -2 3 14 23 36 45 39 37 41 38 39 14 -3 -41 -1 -45 15 -24 13 17
13 15 4 -19 -6 -21 -8 -44 -6 -50 3 -10 23 46 31 88 11 56 56 156 67 149 5 -3
8 12 8 33 -2 43 36 133 56 133 10 0 13 -14 11 -47z m198 -23 c-11 -28 -20 -38
-27 -31 -7 7 -7 14 1 23 6 8 9 23 8 33 -2 11 1 26 7 33 21 26 28 -14 11 -58z
m-3220 45 c3 -8 1 -15 -4 -15 -6 0 -10 7 -10 15 0 8 2 15 4 15 2 0 6 -7 10
-15z m3142 -30 c-3 -17 -9 -40 -12 -51 -7 -19 -7 -19 14 0 37 33 24 -1 -23
-59 -52 -64 -65 -92 -55 -120 6 -16 8 -13 14 17 7 39 50 87 100 114 35 17 36
17 36 -1 0 -9 -7 -18 -15 -21 -8 -4 -15 -17 -15 -31 0 -27 -26 -83 -39 -83 -5
0 -12 10 -15 23 -6 22 -6 22 -22 2 -9 -11 -23 -37 -32 -58 -10 -21 -22 -35
-29 -33 -7 3 -15 1 -18 -3 -3 -5 2 -11 10 -15 9 -3 12 -12 8 -23 -9 -26 -44
-63 -59 -63 -7 0 -18 -8 -23 -17 -15 -25 -14 3 1 30 6 12 22 33 36 45 14 13
21 27 16 30 -9 7 -11 15 -17 84 -3 30 -1 35 10 26 16 -13 15 -15 36 51 14 46
14 56 3 65 -10 8 -12 18 -5 35 8 19 12 21 24 11 9 -7 18 -10 22 -6 4 3 -2 13
-13 21 -10 8 -14 15 -7 15 6 0 16 13 21 29 8 23 15 28 32 24 17 -5 20 -11 16
-38z m-3951 -12 c-6 -41 -9 -46 -31 -49 -14 -2 -14 0 0 21 8 12 12 32 9 44 -4
15 -1 21 11 21 14 0 16 -7 11 -37z m3875 23 c0 -8 -7 -16 -15 -20 -12 -4 -13
-2 -2 14 14 24 17 25 17 6z m230 -14 c0 -4 -9 -8 -19 -8 -15 0 -17 3 -9 13 10
12 28 9 28 -5z m-3300 -8 c0 -8 -5 -12 -10 -9 -6 4 -8 11 -5 16 9 14 15 11 15
-7z m650 6 c0 -5 -4 -10 -10 -10 -5 0 -10 5 -10 10 0 6 5 10 10 10 6 0 10 -4
10 -10z m-990 -14 c0 -3 -4 -8 -10 -11 -5 -3 -10 -1 -10 4 0 6 5 11 10 11 6 0
10 -2 10 -4z m486 -85 c-4 -6 -12 -8 -18 -5 -13 8 0 -75 14 -93 12 -15 2 -33
-17 -33 -15 0 -30 36 -26 63 1 10 -3 17 -11 16 -29 -3 -40 2 -34 16 7 19 -3
47 -15 39 -5 -3 -9 -1 -9 5 0 19 23 24 35 7 11 -14 13 -15 19 -1 3 8 13 15 21
15 10 0 13 5 9 13 -4 6 3 2 16 -9 12 -12 19 -27 16 -33z m-976 -24 c0 -5 -4
-5 -10 -2 -5 3 -10 14 -10 23 0 15 2 15 10 2 5 -8 10 -19 10 -23z m1075 23 c3
-5 -1 -10 -10 -10 -9 0 -13 5 -10 10 3 6 8 10 10 10 2 0 7 -4 10 -10z m-75
-34 c0 -11 -19 -15 -25 -6 -3 5 1 10 9 10 9 0 16 -2 16 -4z m-140 -36 c0 -5
-5 -10 -11 -10 -5 0 -7 5 -4 10 3 6 8 10 11 10 2 0 4 -4 4 -10z m147 -1 c6 -6
8 -19 6 -30 -5 -18 -7 -17 -19 7 -8 14 -14 28 -14 30 0 8 16 4 27 -7z m2653
-20 c0 -5 -7 -9 -15 -9 -9 0 -12 6 -9 15 6 15 24 11 24 -6z m-1490 -20 c0 -5
-9 -9 -20 -9 -22 0 -27 16 -7 23 15 5 27 -1 27 -14z m230 -5 c0 -8 -4 -12 -10
-9 -5 3 -10 10 -10 16 0 5 5 9 10 9 6 0 10 -7 10 -16z m-30 -24 c0 -5 -4 -10
-10 -10 -5 0 -10 5 -10 10 0 6 5 10 10 10 6 0 10 -4 10 -10z m1446 -37 c-10
-10 -19 5 -10 18 6 11 8 11 12 0 2 -7 1 -15 -2 -18z m134 -18 c0 -8 -6 -15
-14 -15 -8 0 -16 -6 -19 -12 -2 -7 -7 -10 -11 -7 -5 5 29 49 39 49 3 0 5 -7 5
-15z m-351 -83 c-29 -32 -32 -34 -26 -12 4 14 7 31 7 38 0 15 43 34 48 21 2
-5 -11 -26 -29 -47z m-1919 28 c0 -5 -5 -10 -11 -10 -5 0 -7 5 -4 10 3 6 8 10
11 10 2 0 4 -4 4 -10z m75 0 c-3 -5 -11 -10 -16 -10 -6 0 -7 5 -4 10 3 6 11
10 16 10 6 0 7 -4 4 -10z m184 -12 c11 -31 4 -45 -31 -62 -26 -14 -32 -14 -45
-1 -8 8 -11 20 -7 27 5 8 2 9 -9 5 -11 -4 -17 -1 -17 8 0 9 15 17 40 21 22 4
40 10 40 15 0 18 21 8 29 -13z m36 12 c3 -5 1 -10 -4 -10 -6 0 -11 5 -11 10 0
6 2 10 4 10 3 0 8 -4 11 -10z m2161 -22 c-3 -19 -39 -78 -48 -78 -4 0 -10 5
-13 10 -3 6 -1 10 5 10 6 0 18 16 26 35 14 33 34 49 30 23z m-2516 -18 c0 -5
-8 -10 -17 -10 -15 0 -16 2 -3 10 19 12 20 12 20 0z m360 -11 c0 -11 -4 -17
-10 -14 -5 3 -10 13 -10 21 0 8 5 14 10 14 6 0 10 -9 10 -21z m-179 -22 c-10
-24 -28 -43 -36 -35 -2 2 5 19 16 37 23 38 34 37 20 -2z m-87 8 c3 -8 2 -15
-3 -15 -5 0 -14 7 -21 15 -10 12 -10 15 3 15 8 0 17 -7 21 -15z m1889 -40 c-3
-9 -8 -14 -10 -11 -3 3 -2 9 2 15 9 16 15 13 8 -4z m-1908 -5 c4 -6 -2 -9 -14
-7 -29 4 -39 17 -13 17 11 0 24 -5 27 -10z m449 -43 c5 -29 2 -39 -9 -44 -21
-7 -32 4 -17 19 8 8 8 17 0 31 -7 15 -7 22 3 28 17 10 16 11 23 -34z m1607 10
c-8 -8 -11 -7 -11 4 0 20 13 34 18 19 3 -7 -1 -17 -7 -23z m-1796 4 c3 -5 1
-12 -5 -16 -5 -3 -10 1 -10 9 0 18 6 21 15 7z m65 -51 c0 -4 -9 -10 -21 -13
-15 -4 -19 -2 -15 10 3 8 6 19 6 25 0 6 6 6 15 -2 8 -7 15 -16 15 -20z m1502
-22 c-8 -8 -9 -4 -5 13 4 13 8 18 11 10 2 -7 -1 -18 -6 -23z m96 7 c0 -14 -4
-25 -8 -25 -11 0 -18 22 -12 38 7 21 20 13 20 -13z m-408 -13 c0 -15 -2 -15
-10 -2 -13 20 -13 33 0 25 6 -3 10 -14 10 -23z m-1130 -4 c0 -13 -23 -5 -28
10 -2 7 2 10 12 6 9 -3 16 -11 16 -16z m1176 -63 c6 -6 17 -21 24 -34 11 -21
10 -23 -3 -18 -14 5 -15 2 -5 -21 7 -15 15 -31 20 -36 11 -13 10 -53 -1 -60
-5 -3 -14 1 -21 9 -7 8 -18 15 -26 15 -24 0 -34 33 -17 52 15 17 10 23 -18 20
-3 -1 -5 16 -3 36 2 20 3 45 3 56 1 19 10 15 47 -19z m326 -7 c-18 -19 -22
-20 -22 -6 0 9 8 21 17 27 27 15 29 3 5 -21z m-1496 7 c-2 -14 -16 -22 -16
-10 0 3 0 10 0 15 0 6 4 10 9 10 5 0 8 -7 7 -15z m74 5 c0 -6 -10 -14 -21 -18
-20 -8 -20 -10 -5 -24 20 -21 21 -29 1 -22 -8 3 -17 16 -21 27 -8 26 -7 32 5
32 5 0 13 3 17 8 11 10 24 9 24 -3z m1351 -43 c-16 -16 -14 -30 4 -23 8 3 15
1 15 -4 0 -15 -30 -12 -36 4 -3 8 0 25 7 38 8 15 14 19 17 10 2 -8 -1 -19 -7
-25z m-1420 -50 c-10 -9 -11 -8 -5 6 3 10 9 15 12 12 3 -3 0 -11 -7 -18z
m1274 3 c3 -5 -1 -10 -10 -10 -9 0 -13 5 -10 10 3 6 8 10 10 10 2 0 7 -4 10
-10z m126 -33 c-8 -8 -11 -7 -11 4 0 20 13 34 18 19 3 -7 -1 -17 -7 -23z m59
8 c-7 -9 -15 -13 -19 -10 -3 3 1 10 9 15 21 14 24 12 10 -5z m-325 -53 c11
-28 18 -88 9 -79 -5 5 -9 14 -9 20 0 25 -24 16 -27 -10 -2 -15 -7 -26 -13 -23
-12 6 -7 84 5 88 5 2 6 10 3 18 -8 21 24 7 32 -14z m-1165 2 c0 -2 -7 -4 -15
-4 -8 0 -15 4 -15 10 0 5 7 7 15 4 8 -4 15 -8 15 -10z m1360 -4 c0 -5 -5 -10
-11 -10 -5 0 -7 5 -4 10 3 6 8 10 11 10 2 0 4 -4 4 -10z m41 -13 c-6 -8 -8
-17 -5 -20 3 -3 3 -11 -1 -17 -6 -9 -10 -9 -16 1 -9 15 7 49 23 49 7 0 7 -4
-1 -13z m-1541 -7 c0 -5 -4 -10 -10 -10 -5 0 -10 5 -10 10 0 6 5 10 10 10 6 0
10 -4 10 -10z m-1135 -10 c-3 -5 -13 -10 -21 -10 -8 0 -12 5 -9 10 3 6 13 10
21 10 8 0 12 -4 9 -10z m935 -21 c0 -5 -4 -9 -10 -9 -5 0 -10 7 -10 16 0 8 5
12 10 9 6 -3 10 -10 10 -16z m-20 -49 c0 -5 -5 -10 -11 -10 -5 0 -7 5 -4 10 3
6 8 10 11 10 2 0 4 -4 4 -10z m-710 -19 c0 -6 -4 -12 -8 -15 -5 -3 -9 1 -9 9
0 8 4 15 9 15 4 0 8 -4 8 -9z m310 -44 c0 -14 -20 -37 -32 -37 -12 0 -10 24 4
38 16 16 28 15 28 -1z m51 -54 c13 -21 28 -41 33 -45 6 -4 7 -8 3 -8 -5 0 -5
-5 -2 -10 4 -7 13 -6 26 1 16 8 18 13 8 25 -17 21 5 17 25 -5 12 -13 14 -21 6
-26 -8 -5 -4 -15 11 -31 12 -13 18 -24 13 -24 -5 0 -2 -4 6 -10 20 -12 -1 -51
-37 -67 -39 -19 -50 -16 -50 12 0 14 -3 28 -6 32 -10 9 -58 -7 -52 -17 3 -6 2
-10 -3 -10 -6 0 -19 15 -30 32 -18 29 -19 35 -6 49 20 23 18 42 -3 31 -28 -14
-84 4 -76 25 6 14 7 14 19 -2 19 -26 42 -12 64 40 11 25 21 45 24 45 2 0 15
-17 27 -37z m294 -20 c-2 -10 -4 -20 -4 -23 -1 -3 -5 2 -10 10 -10 15 -6 30 9
30 4 0 7 -8 5 -17z m1480 -33 c3 -5 2 -10 -4 -10 -5 0 -13 5 -16 10 -3 6 -2
10 4 10 5 0 13 -4 16 -10z m450 -62 c-3 -8 -19 -22 -35 -32 -27 -15 -30 -15
-30 -1 0 8 14 24 32 35 35 21 41 21 33 -2z m-2915 -103 c-13 -14 -28 -25 -33
-25 -6 0 3 13 19 28 35 35 47 32 14 -3z m835 -35 c-3 -5 -12 -10 -18 -10 -7 0
-6 4 3 10 19 12 23 12 15 0z m1795 -58 c0 -10 -7 -27 -16 -38 -15 -18 -15 -18
-10 6 3 14 6 31 6 38 0 6 5 12 10 12 6 0 10 -8 10 -18z m-450 -23 c0 -11 -4
-17 -10 -14 -5 3 -10 15 -10 26 0 11 5 17 10 14 6 -3 10 -15 10 -26z m-1390
-3 c0 -3 -4 -8 -10 -11 -5 -3 -10 -1 -10 4 0 6 5 11 10 11 6 0 10 -2 10 -4z
m409 -89 c-13 -4 -27 -13 -31 -20 -12 -19 -10 17 3 50 l11 28 20 -25 19 -24
-22 -9z m571 27 c0 -8 -4 -12 -10 -9 -5 3 -10 10 -10 16 0 5 5 9 10 9 6 0 10
-7 10 -16z m-1520 -58 c-20 -18 -80 -38 -80 -25 0 5 1 9 3 9 1 0 20 7 42 15
50 18 52 18 35 1z m1087 -41 c-8 -19 -37 -20 -37 0 0 8 5 15 11 15 5 0 7 -6 4
-12 -3 -7 0 -5 7 4 14 20 23 16 15 -7z m1023 -55 c0 -5 -4 -10 -10 -10 -5 0
-10 5 -10 10 0 6 5 10 10 10 6 0 10 -4 10 -10z m-20 -50 c0 -5 -5 -10 -11 -10
-5 0 -7 5 -4 10 3 6 8 10 11 10 2 0 4 -4 4 -10z m5 -60 c0 -24 -21 -21 -33 4
-10 23 -10 24 11 17 12 -5 22 -14 22 -21z m-165 -85 c0 -10 -40 -49 -45 -44
-6 7 24 49 36 49 5 0 9 -2 9 -5z m-81 -44 c-13 -11 -28 -17 -32 -14 -5 3 2 11
15 18 35 20 43 17 17 -4z m-2671 -308 c1 -27 -1 -34 -10 -25 -6 6 -8 22 -4 36
9 35 13 33 14 -11z m2232 -2 c0 -6 -9 -9 -20 -8 -11 1 -20 5 -20 9 0 4 9 8 20
8 11 0 20 -4 20 -9z m-2245 -60 c3 -5 1 -12 -5 -16 -5 -3 -10 1 -10 9 0 18 6
21 15 7z m16 -59 c-12 -22 -12 -31 3 -67 16 -39 7 -76 -22 -86 -12 -5 -23 -7
-23 -6 -1 1 -3 35 -4 76 -2 61 1 77 17 93 22 22 43 15 29 -10z m-3 -187 l37
-16 -35 -27 c-30 -23 -90 -51 -112 -52 -18 0 7 31 28 36 18 5 24 13 24 33 0
25 7 41 17 41 2 0 20 -7 41 -15z m-6 -110 c-2 -14 1 -32 8 -40 14 -17 7 -45
-11 -45 -9 0 -9 3 0 14 9 10 8 16 -4 26 -16 13 -19 37 -9 64 9 24 22 10 16
-19z m-47 -135 c-6 -9 -9 -9 -16 1 -10 17 0 34 13 21 6 -6 7 -16 3 -22z m-365
-5 c0 -14 -4 -25 -10 -25 -11 0 -14 33 -3 43 11 11 13 8 13 -18z m444 6 c11
-12 15 -25 10 -33 -9 -13 -10 -18 -13 -38 -1 -6 -10 -5 -26 2 -23 10 -24 12
-9 41 15 27 15 29 0 24 -16 -6 -22 4 -9 16 12 12 30 7 47 -12z m-849 -41 c3
-5 1 -10 -4 -10 -6 0 -11 5 -11 10 0 6 2 10 4 10 3 0 8 -4 11 -10z m405 -20
c0 -5 -5 -10 -11 -10 -5 0 -7 5 -4 10 3 6 8 10 11 10 2 0 4 -4 4 -10z m420
-25 c10 -12 10 -15 -4 -15 -9 0 -16 7 -16 15 0 8 2 15 4 15 2 0 9 -7 16 -15z
m-915 -14 c10 -17 -12 -21 -25 -6 -10 12 -10 15 3 15 9 0 18 -4 22 -9z m825
-11 c0 -5 -4 -10 -10 -10 -5 0 -10 5 -10 10 0 6 5 10 10 10 6 0 10 -4 10 -10z
m1960 -5 c16 -19 1 -19 -24 0 -16 12 -17 15 -4 15 8 0 21 -7 28 -15z m-2814
-34 c15 -27 18 -44 12 -55 -5 -9 -6 -25 -3 -36 7 -22 -15 -68 -45 -93 -11 -10
-18 -22 -15 -28 5 -7 12 -6 21 2 25 20 25 3 1 -23 -18 -20 -30 -24 -55 -20
-38 5 -48 17 -32 38 9 10 16 11 25 4 9 -8 13 -5 13 12 1 65 23 154 42 170 11
9 16 19 11 22 -10 7 -11 46 -1 46 3 0 14 -18 26 -39z m515 16 c-10 -9 -11 -8
-5 6 3 10 9 15 12 12 3 -3 0 -11 -7 -18z m409 -17 c0 -5 -4 -10 -10 -10 -5 0
-10 5 -10 10 0 6 5 10 10 10 6 0 10 -4 10 -10z m-1100 -10 c0 -5 -5 -10 -11
-10 -5 0 -7 5 -4 10 3 6 8 10 11 10 2 0 4 -4 4 -10z m-70 -4 c0 -3 -4 -8 -10
-11 -5 -3 -10 -1 -10 4 0 6 5 11 10 11 6 0 10 -2 10 -4z m784 -32 c3 -8 1 -24
-4 -34 -6 -10 -10 -28 -10 -39 0 -31 -17 -34 -22 -3 -5 33 9 92 21 92 5 0 12
-7 15 -16z m2156 -14 c0 -10 -35 -8 -46 2 -3 4 -3 11 1 17 7 13 45 -4 45 -19z
m-710 -80 c-6 -11 -15 -20 -20 -20 -6 0 -5 9 2 20 7 11 16 20 21 20 4 0 3 -9
-3 -20z m645 10 c-3 -5 -10 -10 -16 -10 -5 0 -9 5 -9 10 0 6 7 10 16 10 8 0
12 -4 9 -10z m320 -20 c3 -5 1 -10 -4 -10 -6 0 -11 5 -11 10 0 6 2 10 4 10 3
0 8 -4 11 -10z m-3355 -26 c0 -8 -4 -14 -10 -14 -5 0 -10 9 -10 21 0 11 5 17
10 14 6 -3 10 -13 10 -21z m453 -4 c3 -11 3 -20 1 -20 -2 0 -8 9 -14 20 -6 11
-7 20 -2 20 6 0 12 -9 15 -20z m13 -93 c4 -3 1 -13 -6 -22 -19 -23 -5 -48 22
-39 20 6 21 5 9 -10 -15 -18 -51 -22 -51 -6 0 6 -7 10 -15 10 -8 0 -15 -5 -15
-11 0 -6 7 -17 15 -25 21 -22 18 -36 -7 -32 -14 2 -24 13 -29 31 -10 38 -3 54
27 61 13 4 24 13 24 21 0 25 -38 17 -57 -11 -15 -24 -17 -25 -24 -8 -12 30
-10 34 12 42 26 10 85 9 95 -1z m491 -87 c1 -11 -2 -18 -8 -15 -11 7 -12 35
-1 35 4 0 8 -9 9 -20z m-599 -36 c-21 -21 -48 -11 -48 17 0 18 2 19 15 9 12
-10 15 -9 15 6 0 17 1 17 17 1 16 -16 16 -18 1 -33z m-746 -2 c-7 -2 -9 -8 -6
-13 7 -13 -15 -41 -27 -33 -5 3 -9 -2 -9 -11 0 -8 -5 -24 -12 -34 -9 -15 -16
-17 -30 -10 -11 6 -18 6 -18 1 0 -22 -183 -79 -220 -69 -11 3 -23 1 -26 -4 -3
-5 -11 -9 -17 -9 -19 1 36 40 56 40 10 0 27 5 39 11 11 6 36 13 56 15 20 3 41
9 46 14 6 6 16 10 23 10 19 0 89 52 109 81 11 17 23 25 33 21 10 -4 11 -7 3
-10z m1368 -31 c0 -6 -4 -13 -10 -16 -5 -3 -10 1 -10 9 0 9 5 16 10 16 6 0 10
-4 10 -9z m-584 -37 c-25 -24 -46 -31 -46 -16 0 13 24 39 40 45 29 9 32 -6 6
-29z m604 -44 c0 -5 -4 -10 -10 -10 -5 0 -10 5 -10 10 0 6 5 10 10 10 6 0 10
-4 10 -10z m-610 -30 c0 -5 -2 -10 -4 -10 -3 0 -8 5 -11 10 -3 6 -1 10 4 10 6
0 11 -4 11 -10z m83 -25 c-3 -8 -9 -15 -14 -15 -10 0 -12 24 -3 33 11 11 24
-3 17 -18z m-1503 5 c0 -5 -5 -10 -10 -10 -6 0 -22 -12 -35 -26 -14 -15 -25
-23 -25 -18 0 13 49 64 60 64 6 0 10 -4 10 -10z m-80 -10 c0 -5 -4 -10 -10
-10 -5 0 -10 5 -10 10 0 6 5 10 10 10 6 0 10 -4 10 -10z m-30 -35 c0 -6 -38
-45 -44 -45 -7 0 -14 39 -8 44 7 7 52 8 52 1z m2200 -14 c13 -26 13 -31 -5
-31 -8 0 -15 5 -15 11 0 7 -8 18 -17 25 -17 12 -16 13 4 14 12 0 27 -9 33 -19z
m21 -68 c0 -5 2 -15 5 -23 2 -8 6 -28 9 -45 l6 -30 -14 25 c-20 35 -30 80 -17
80 5 0 10 -3 11 -7z m44 -133 c3 -5 -1 -10 -9 -10 -9 0 -16 5 -16 10 0 6 4 10
9 10 6 0 13 -4 16 -10z m-2465 -29 c0 -18 -18 -21 -30 -6 -10 13 -9 15 9 15
11 0 21 -4 21 -9z m-80 -39 c0 -13 -12 -22 -22 -16 -10 6 -1 24 13 24 5 0 9
-4 9 -8z m-164 -49 c-10 -10 -19 5 -10 18 6 11 8 11 12 0 2 -7 1 -15 -2 -18z
m-306 -3 c0 -5 -5 -10 -11 -10 -5 0 -7 5 -4 10 3 6 8 10 11 10 2 0 4 -4 4 -10z
m3065 0 c-3 -5 -10 -10 -16 -10 -5 0 -9 5 -9 10 0 6 7 10 16 10 8 0 12 -4 9
-10z m-3175 -9 c0 -5 -7 -11 -15 -15 -9 -3 -15 0 -15 9 0 8 7 15 15 15 8 0 15
-4 15 -9z m68 -20 c-2 -9 -27 -32 -57 -52 -53 -35 -85 -46 -78 -25 3 6 10 10
16 9 6 -2 11 6 11 17 0 11 6 20 13 20 7 0 23 13 35 29 15 21 27 28 42 24 12
-3 20 -12 18 -22z m199 -3 c-3 -8 -6 -5 -6 6 -1 11 2 17 5 13 3 -3 4 -12 1
-19z m2923 -22 c0 -3 -4 -8 -10 -11 -5 -3 -10 -1 -10 4 0 6 5 11 10 11 6 0 10
-2 10 -4z m-3306 -51 c-2 -67 -8 -106 -16 -111 -4 -3 -8 -4 -8 -2 -1 2 -3 38
-7 82 -5 73 -5 78 13 74 15 -3 19 -11 18 -43z m3336 14 c0 -5 -4 -9 -10 -9 -5
0 -10 7 -10 16 0 8 5 12 10 9 6 -3 10 -10 10 -16z m-3170 2 c0 -12 -26 -32
-33 -25 -9 10 4 34 19 34 8 0 14 -4 14 -9z m175 -31 c-3 -5 -11 -10 -16 -10
-6 0 -7 5 -4 10 3 6 11 10 16 10 6 0 7 -4 4 -10z m4940 -40 c3 -5 1 -10 -4
-10 -6 0 -11 5 -11 10 0 6 2 10 4 10 3 0 8 -4 11 -10z m18 -34 c4 -10 1 -13
-9 -9 -15 6 -19 23 -5 23 5 0 11 -7 14 -14z m-1873 -40 c0 -3 -4 -8 -10 -11
-5 -3 -10 -1 -10 4 0 6 5 11 10 11 6 0 10 -2 10 -4z m-3411 -68 c1 -10 -3 -18
-8 -18 -10 0 -21 57 -12 66 6 6 19 -24 20 -48z m4958 -14 c-7 -7 -37 7 -37 17
0 6 9 5 21 -1 11 -7 19 -14 16 -16z m-1492 -2 c-3 -3 -11 0 -18 7 -9 10 -8 11
6 5 10 -3 15 -9 12 -12z m-3445 -89 c0 -27 -3 -34 -11 -26 -7 7 -9 23 -5 37 9
37 16 32 16 -11z m5366 10 c7 -10 14 -24 14 -30 0 -19 -17 -16 -24 5 -3 9 -9
23 -12 30 -9 18 7 15 22 -5z m-62 -59 c5 -14 4 -15 -9 -4 -17 14 -19 20 -6 20
5 0 12 -7 15 -16z"/>
<path d="M5465 8930 c-8 -13 -1 -24 14 -19 6 3 7 10 2 18 -6 10 -10 10 -16 1z"/>
<path d="M4962 8663 c-16 -3 -22 -9 -18 -20 3 -8 6 -19 6 -25 0 -14 28 10 41
34 5 10 6 17 2 17 -4 -1 -18 -4 -31 -6z"/>
<path d="M5023 8633 c-22 -8 -14 -19 17 -21 32 -2 41 12 14 22 -9 3 -16 6 -17
5 -1 0 -8 -3 -14 -6z"/>
<path d="M4950 8554 c0 -8 5 -12 10 -9 6 4 8 11 5 16 -9 14 -15 11 -15 -7z"/>
<path d="M4897 8414 c3 -7 11 -10 19 -7 20 8 17 22 -5 20 -10 0 -17 -7 -14
-13z"/>
<path d="M7255 8330 c3 -5 10 -10 16 -10 5 0 9 5 9 10 0 6 -7 10 -16 10 -8 0
-12 -4 -9 -10z"/>
<path d="M4970 8165 c-10 -13 -9 -15 8 -15 15 0 20 5 16 15 -4 8 -7 15 -9 15
-1 0 -8 -7 -15 -15z"/>
<path d="M4930 7804 c0 -8 5 -12 10 -9 6 4 8 11 5 16 -9 14 -15 11 -15 -7z"/>
<path d="M4760 7356 c0 -2 7 -6 15 -10 8 -3 15 -1 15 4 0 6 -7 10 -15 10 -8 0
-15 -2 -15 -4z"/>
<path d="M4865 7350 c3 -5 15 -10 26 -10 11 0 17 5 14 10 -3 6 -15 10 -26 10
-11 0 -17 -4 -14 -10z"/>
<path d="M6432 7268 c-16 -16 -39 -21 -104 -22 -39 -1 -58 -5 -58 -13 0 -7
-11 -13 -24 -13 -44 0 -84 -20 -89 -46 -3 -16 0 -24 9 -24 8 0 14 4 14 9 0 5
8 11 18 15 9 3 27 10 40 16 30 13 28 -3 -3 -20 -14 -7 -23 -15 -20 -18 2 -3
11 1 20 8 22 18 19 3 -7 -33 -22 -30 -11 -30 25 1 28 24 20 -4 -11 -40 -35
-41 -62 -80 -62 -90 0 -5 11 -8 24 -8 14 0 28 -5 31 -11 4 -6 13 -8 21 -5 8 3
14 -1 14 -10 0 -12 5 -11 27 6 26 21 28 21 33 3 3 -11 13 -18 28 -17 12 1 34
2 48 3 17 1 28 8 31 21 6 23 23 27 23 5 0 -9 6 -12 18 -9 14 5 14 3 -3 -11
-19 -16 -18 -16 25 -10 24 4 48 9 51 11 4 2 19 0 33 -6 16 -6 26 -6 26 0 0 5
16 2 35 -6 19 -8 35 -12 35 -9 0 3 12 -1 28 -8 15 -8 43 -17 64 -21 33 -6 54
-28 49 -51 -1 -5 7 -1 18 9 23 21 39 19 153 -14 52 -16 73 -28 93 -54 27 -36
43 -45 86 -51 54 -7 154 -37 161 -48 6 -9 8 -9 8 0 0 6 -4 15 -10 18 -12 7
-13 25 -2 25 4 0 20 -11 36 -25 34 -29 46 -33 24 -7 -8 9 -24 28 -34 41 -10
13 -25 29 -31 36 -16 17 -17 35 -2 35 5 0 0 19 -12 43 -12 23 -25 49 -29 57
-3 8 -16 19 -28 25 -20 9 -36 51 -22 60 4 3 13 -2 20 -10 7 -8 17 -15 23 -15
6 0 3 8 -8 18 -26 24 -98 44 -130 36 -17 -4 -25 -2 -25 7 -1 19 -39 68 -40 50
0 -10 -7 -8 -23 7 -13 12 -27 22 -33 22 -5 0 -2 -4 6 -10 8 -5 12 -12 8 -15
-3 -4 -18 1 -32 11 -36 23 -41 13 -11 -22 l25 -29 -25 -23 c-15 -12 -31 -19
-37 -16 -7 4 -6 9 2 14 8 5 3 17 -19 39 -17 17 -35 31 -40 31 -6 0 -32 13 -58
30 -30 19 -49 26 -53 19 -10 -15 -87 20 -97 44 -9 21 -110 60 -132 52 -7 -3
-20 0 -28 7 -11 9 -16 9 -22 -1 -7 -10 -11 -10 -22 1 -19 18 -34 19 -47 6z
m377 -172 c18 -19 28 -23 37 -15 9 7 16 4 28 -12 8 -13 13 -25 10 -28 -3 -3
-10 2 -16 12 -9 17 -11 17 -21 3 -10 -14 -18 -9 -56 35 -44 51 -29 55 18 5z
m234 -55 c-3 -10 3 -32 14 -47 l18 -29 -30 21 c-16 12 -36 19 -42 17 -21 -8
-15 17 10 38 28 24 36 24 30 0z m-268 -1 c3 -5 2 -10 -4 -10 -5 0 -13 5 -16
10 -3 6 -2 10 4 10 5 0 13 -4 16 -10z m337 -37 c21 -19 24 -35 5 -27 -14 5
-41 44 -30 44 3 0 15 -7 25 -17z m-172 -103 c0 -5 -2 -10 -4 -10 -3 0 -8 5
-11 10 -3 6 -1 10 4 10 6 0 11 -4 11 -10z m180 -16 c0 -2 -7 -4 -15 -4 -8 0
-15 4 -15 10 0 5 7 7 15 4 8 -4 15 -8 15 -10z m60 -65 c0 -6 -4 -7 -10 -4 -5
3 -10 11 -10 16 0 6 5 7 10 4 6 -3 10 -11 10 -16z"/>
<path d="M6058 7175 c-3 -13 -3 -27 0 -30 8 -8 30 28 25 42 -8 21 -20 15 -25
-12z"/>
<path d="M6880 7191 c0 -5 7 -12 16 -15 14 -5 15 -4 4 9 -14 17 -20 19 -20 6z"/>
<path d="M5871 7177 c2 -1 15 -11 29 -22 l25 -20 -19 23 c-11 12 -24 22 -29
22 -6 0 -8 -1 -6 -3z"/>
<path d="M5976 7172 c-10 -17 -15 -142 -5 -142 6 0 8 4 4 9 -3 5 -1 12 3 15 5
3 10 28 11 57 1 28 4 56 7 60 3 5 1 9 -5 9 -5 0 -12 -4 -15 -8z"/>
<path d="M6930 7161 c0 -5 5 -13 10 -16 6 -3 10 -2 10 4 0 5 -4 13 -10 16 -5
3 -10 2 -10 -4z"/>
<path d="M5860 7152 c0 -12 19 -26 26 -19 2 2 -2 10 -11 17 -9 8 -15 8 -15 2z"/>
<path d="M7000 7150 c8 -5 22 -10 30 -10 13 0 13 1 0 10 -8 5 -22 10 -30 10
-13 0 -13 -1 0 -10z"/>
<path d="M5915 7069 c-10 -30 -2 -32 12 -3 6 13 7 24 3 24 -5 0 -12 -9 -15
-21z"/>
<path d="M6090 7070 c-11 -11 -20 -26 -20 -32 0 -7 11 0 25 16 14 16 25 31 25
33 0 8 -11 2 -30 -17z"/>
<path d="M6163 7078 c-23 -30 -24 -41 -2 -21 12 12 20 25 17 28 -3 3 -10 0
-15 -7z"/>
<path d="M6035 7070 c-3 -5 1 -10 9 -10 8 0 18 5 21 10 3 6 -1 10 -9 10 -8 0
-18 -4 -21 -10z"/>
<path d="M5920 7020 c0 -5 5 -10 11 -10 5 0 7 5 4 10 -3 6 -8 10 -11 10 -2 0
-4 -4 -4 -10z"/>
<path d="M6210 6970 c-9 -6 -10 -10 -3 -10 6 0 15 5 18 10 8 12 4 12 -15 0z"/>
<path d="M5561 6956 c-10 -12 -8 -13 8 -9 12 3 18 9 15 14 -7 12 -10 11 -23
-5z"/>
<path d="M5800 6940 c0 -5 5 -10 11 -10 5 0 7 5 4 10 -3 6 -8 10 -11 10 -2 0
-4 -4 -4 -10z"/>
<path d="M6320 6860 c0 -5 5 -10 11 -10 5 0 7 5 4 10 -3 6 -8 10 -11 10 -2 0
-4 -4 -4 -10z"/>
<path d="M6890 6859 c0 -10 40 -32 47 -25 3 2 2 9 -1 14 -8 13 -46 22 -46 11z"/>
<path d="M6860 6851 c0 -5 5 -13 10 -16 6 -3 10 -2 10 4 0 5 -4 13 -10 16 -5
3 -10 2 -10 -4z"/>
<path d="M6218 6799 c-2 -13 -9 -23 -16 -21 -6 1 -12 -5 -12 -13 0 -8 -7 -15
-16 -15 -9 0 -27 -12 -40 -26 -13 -14 -28 -23 -33 -20 -8 6 -36 -21 -36 -33 0
-3 -4 -5 -11 -3 -12 2 -40 -76 -50 -140 l-7 -38 32 6 c28 6 31 4 25 -12 -4
-11 -15 -31 -25 -45 -35 -50 -34 -73 6 -113 19 -20 42 -36 50 -36 7 0 26 -11
42 -24 15 -12 39 -26 53 -29 14 -3 74 -19 133 -35 116 -31 156 -33 307 -13
203 27 256 55 95 51 -3 0 -27 11 -54 24 -27 14 -51 22 -55 19 -4 -4 -29 -7
-57 -8 -36 -1 -48 2 -45 11 3 7 -4 16 -15 19 -10 4 -17 11 -14 16 4 5 -5 9
-18 9 -20 0 -24 5 -25 30 -1 25 3 30 23 30 17 0 23 4 19 14 -4 10 9 17 43 25
67 15 141 24 188 22 65 -2 95 -2 198 3 53 2 97 1 97 -3 0 -8 197 -7 206 2 4 4
-4 7 -17 8 -37 1 -84 8 -126 18 -57 15 -167 55 -174 64 -3 4 -15 10 -27 12
-12 3 -31 7 -42 10 -11 3 -28 7 -37 9 -72 17 -216 61 -253 79 -25 11 -49 20
-53 19 -4 -1 -10 5 -13 13 -3 8 -10 12 -15 9 -5 -3 -9 5 -9 17 0 12 -3 19 -7
16 -3 -4 -11 3 -17 15 -6 12 -37 35 -68 52 -52 27 -60 28 -83 16 -22 -12 -28
-12 -35 0 -6 10 -9 7 -12 -11z"/>
<path d="M7000 6806 c0 -2 9 -6 20 -9 11 -3 18 -1 14 4 -5 9 -34 13 -34 5z"/>
<path d="M5455 6771 c-3 -5 -1 -12 5 -16 12 -7 30 2 30 16 0 12 -27 12 -35 0z"/>
<path d="M7270 6696 c43 -12 60 -12 47 0 -3 3 -25 7 -49 10 l-43 4 45 -14z"/>
<path d="M6865 6279 c-34 -8 -33 -9 11 -13 18 -2 37 0 44 4 18 11 -19 17 -55
9z"/>
<path d="M6940 6270 c0 -5 5 -10 11 -10 5 0 7 5 4 10 -3 6 -8 10 -11 10 -2 0
-4 -4 -4 -10z"/>
<path d="M6287 5376 c-7 -17 22 -31 36 -17 6 6 2 13 -11 20 -15 8 -21 7 -25
-3z"/>
<path d="M6223 5315 c-15 -13 -23 -25 -16 -25 7 0 25 11 40 25 15 13 23 25 16
25 -7 0 -25 -11 -40 -25z"/>
<path d="M6965 5130 c3 -5 8 -10 11 -10 2 0 4 5 4 10 0 6 -5 10 -11 10 -5 0
-7 -4 -4 -10z"/>
<path d="M6050 5093 c0 -14 2 -15 9 -4 5 7 14 10 20 7 6 -4 11 -2 11 3 0 6 -9
11 -20 11 -12 0 -20 -7 -20 -17z"/>
<path d="M5912 5058 c3 -7 13 -15 24 -17 16 -3 17 -1 5 13 -16 19 -34 21 -29
4z"/>
<path d="M7434 5026 c-6 -34 0 -56 15 -56 13 0 32 51 26 71 -10 31 -34 22 -41
-15z"/>
<path d="M5856 5011 c-3 -5 0 -11 8 -14 15 -6 26 1 26 15 0 11 -27 10 -34 -1z"/>
<path d="M6030 5005 c0 -8 4 -15 10 -15 5 0 7 7 4 15 -4 8 -8 15 -10 15 -2 0
-4 -7 -4 -15z"/>
<path d="M6270 5013 c0 -4 5 -15 10 -23 8 -13 10 -13 10 2 0 9 -4 20 -10 23
-5 3 -10 3 -10 -2z"/>
<path d="M5690 5003 c0 -5 6 -15 13 -22 7 -8 0 -7 -21 3 -18 9 -31 13 -30 9 0
-4 -2 -20 -6 -35 -6 -19 -15 -28 -30 -28 -15 0 -17 -3 -8 -9 8 -4 13 -12 11
-17 -1 -5 13 -18 32 -29 29 -16 32 -17 20 -2 -9 12 -10 17 -2 17 7 0 9 5 6 10
-3 6 -1 10 4 10 15 0 14 37 -1 44 -7 3 -3 3 9 0 52 -12 63 -12 63 0 0 12 -22
35 -47 50 -7 4 -13 3 -13 -1z"/>
<path d="M7567 4994 c-3 -3 -3 -13 0 -21 5 -12 7 -12 14 -1 15 23 4 40 -14 22z"/>
<path d="M6320 4986 c0 -2 8 -10 18 -17 15 -13 16 -12 3 4 -13 16 -21 21 -21
13z"/>
<path d="M5495 4970 c3 -5 10 -10 16 -10 5 0 9 5 9 10 0 6 -7 10 -16 10 -8 0
-12 -4 -9 -10z"/>
<path d="M6250 4963 c0 -13 105 -183 112 -183 8 0 -12 38 -69 133 -33 54 -43
66 -43 50z"/>
<path d="M6172 4924 c19 -32 47 -49 34 -21 -3 6 -9 19 -12 29 -3 9 -14 18 -24
21 -17 4 -17 2 2 -29z"/>
<path d="M5493 4900 c-2 -23 1 -39 6 -36 15 10 19 44 7 61 -9 12 -11 8 -13
-25z"/>
<path d="M6310 4937 c0 -5 13 -27 29 -50 15 -23 26 -48 24 -54 -3 -7 2 -13 9
-13 19 0 20 37 2 44 -9 3 -13 9 -11 13 3 5 -8 22 -24 38 -16 17 -29 26 -29 22z"/>
<path d="M5443 4923 c-7 -3 -13 -16 -13 -29 0 -25 -15 -33 -23 -11 -3 8 -7 6
-12 -6 -4 -10 -5 -20 -2 -23 11 -11 44 7 57 30 14 27 11 45 -7 39z"/>
<path d="M6449 4906 c14 -14 26 -24 29 -22 7 8 -8 25 -31 37 -21 11 -21 10 2
-15z"/>
<path d="M6070 4898 c0 -9 7 -19 16 -22 15 -6 15 -4 3 11 -7 10 -15 20 -16 22
-2 2 -3 -3 -3 -11z"/>
<path d="M6570 4892 c0 -11 22 -32 32 -32 5 0 4 9 -2 20 -11 20 -30 28 -30 12z"/>
<path d="M7504 4817 c-3 -9 -12 -17 -19 -17 -17 0 -24 -22 -30 -89 -4 -46 7
-70 17 -39 6 16 61 19 70 4 5 -7 8 -5 8 6 0 9 -5 18 -12 20 -7 3 -11 24 -10
54 2 55 -12 91 -24 61z"/>
<path d="M7235 4670 c-3 -5 -1 -10 4 -10 6 0 11 5 11 10 0 6 -2 10 -4 10 -3 0
-8 -4 -11 -10z"/>
<path d="M7140 4354 c0 -8 5 -12 10 -9 6 4 8 11 5 16 -9 14 -15 11 -15 -7z"/>
<path d="M7116 4323 c-9 -9 -7 -41 3 -47 5 -3 11 6 14 19 4 25 -4 40 -17 28z"/>
<path d="M7027 4255 c-20 -14 -37 -30 -37 -35 0 -13 17 -13 25 0 3 6 14 10 23
10 21 1 60 50 40 50 -7 0 -30 -11 -51 -25z"/>
<path d="M6910 3966 c0 -8 5 -18 10 -21 6 -3 10 1 10 9 0 8 -4 18 -10 21 -5 3
-10 -1 -10 -9z"/>
<path d="M4370 8635 c0 -8 2 -15 4 -15 2 0 6 7 10 15 3 8 1 15 -4 15 -6 0 -10
-7 -10 -15z"/>
<path d="M4210 8619 c0 -5 5 -7 10 -4 6 3 10 8 10 11 0 2 -4 4 -10 4 -5 0 -10
-5 -10 -11z"/>
<path d="M4500 8600 c0 -5 5 -10 11 -10 5 0 7 5 4 10 -3 6 -8 10 -11 10 -2 0
-4 -4 -4 -10z"/>
<path d="M4179 7973 c-13 -16 -12 -17 4 -4 9 7 17 15 17 17 0 8 -8 3 -21 -13z"/>
<path d="M4146 7912 c-2 -4 2 -15 9 -25 11 -16 13 -16 19 -1 10 25 -14 48 -28
26z"/>
<path d="M4083 7891 c-23 -19 -29 -31 -15 -31 4 0 15 12 25 25 21 30 19 31
-10 6z"/>
<path d="M4015 7850 c3 -5 12 -7 20 -3 21 7 19 13 -6 13 -11 0 -18 -4 -14 -10z"/>
<path d="M3905 7810 c-3 -5 1 -10 9 -10 9 0 16 5 16 10 0 6 -4 10 -9 10 -6 0
-13 -4 -16 -10z"/>
<path d="M3821 7801 c-8 -5 -9 -11 -3 -15 5 -3 15 1 22 9 14 16 3 20 -19 6z"/>
<path d="M4057 7696 c-9 -13 -13 -26 -10 -30 11 -10 43 15 43 34 0 27 -14 25
-33 -4z"/>
<path d="M4010 7645 c0 -9 5 -15 11 -13 6 2 11 8 11 13 0 5 -5 11 -11 13 -6 2
-11 -4 -11 -13z"/>
<path d="M3477 7633 c-4 -3 -7 -11 -7 -17 0 -6 5 -5 12 2 6 6 9 14 7 17 -3 3
-9 2 -12 -2z"/>
<path d="M4000 7581 c-19 -20 -26 -71 -10 -71 7 0 10 6 7 13 -3 7 1 21 8 31
13 16 14 16 23 0 9 -16 10 -16 21 4 6 11 8 23 4 25 -24 12 -40 12 -53 -2z"/>
<path d="M3940 7554 c0 -14 4 -23 10 -19 6 3 10 15 10 26 0 10 -4 19 -10 19
-5 0 -10 -12 -10 -26z"/>
<path d="M3675 7550 c-3 -6 1 -7 9 -4 18 7 21 14 7 14 -6 0 -13 -4 -16 -10z"/>
<path d="M3460 7450 c-11 -11 -20 -26 -20 -32 1 -8 6 -6 14 5 7 9 18 17 25 17
6 0 11 7 11 15 0 20 -6 19 -30 -5z"/>
<path d="M3916 7435 c-3 -9 0 -15 9 -15 8 0 15 7 15 15 0 8 -4 15 -9 15 -5 0
-11 -7 -15 -15z"/>
<path d="M3526 7375 c-7 -20 2 -42 17 -42 9 0 12 10 9 29 -5 31 -17 37 -26 13z"/>
<path d="M4180 7359 c0 -5 5 -7 10 -4 6 3 10 8 10 11 0 2 -4 4 -10 4 -5 0 -10
-5 -10 -11z"/>
<path d="M3780 7340 c0 -5 7 -10 16 -10 8 0 12 5 9 10 -3 6 -10 10 -16 10 -5
0 -9 -4 -9 -10z"/>
<path d="M3380 7330 c0 -5 5 -10 10 -10 6 0 10 5 10 10 0 6 -4 10 -10 10 -5 0
-10 -4 -10 -10z"/>
<path d="M3350 7265 c-7 -9 -10 -18 -7 -21 3 -3 10 4 17 15 13 25 8 27 -10 6z"/>
<path d="M3408 7258 c9 -9 15 -9 24 0 9 9 7 12 -12 12 -19 0 -21 -3 -12 -12z"/>
<path d="M3630 7230 c0 -5 5 -10 10 -10 6 0 10 5 10 10 0 6 -4 10 -10 10 -5 0
-10 -4 -10 -10z"/>
<path d="M3809 7140 c-2 -25 -5 -34 -17 -64 -13 -30 -10 -42 7 -32 19 12 36
85 23 98 -9 9 -12 9 -13 -2z"/>
<path d="M3675 7111 c-3 -5 -1 -12 5 -16 5 -3 10 1 10 9 0 18 -6 21 -15 7z"/>
<path d="M3701 7097 c0 -10 -12 -22 -26 -27 -20 -8 -25 -16 -25 -45 0 -38 2
-40 30 -25 20 11 35 65 27 97 -4 16 -5 16 -6 0z m-19 -79 c-7 -7 -10 -5 -7 8
5 29 6 30 12 16 3 -8 1 -18 -5 -24z"/>
<path d="M3608 7008 c9 -9 15 -9 24 0 9 9 7 12 -12 12 -19 0 -21 -3 -12 -12z"/>
<path d="M3330 6980 c0 -5 5 -10 10 -10 6 0 10 5 10 10 0 6 -4 10 -10 10 -5 0
-10 -4 -10 -10z"/>
<path d="M3315 6933 c4 -10 7 -29 6 -43 -1 -20 1 -22 9 -10 15 23 12 57 -6 64
-13 5 -15 2 -9 -11z"/>
<path d="M3610 6891 c-7 -15 -7 -21 0 -21 12 0 25 28 17 36 -3 3 -10 -4 -17
-15z"/>
<path d="M3299 6855 c-6 -42 -5 -56 7 -66 11 -9 14 -6 14 17 0 28 -18 69 -21
49z"/>
<path d="M3510 6839 c0 -5 5 -7 10 -4 6 3 10 8 10 11 0 2 -4 4 -10 4 -5 0 -10
-5 -10 -11z"/>
<path d="M3587 6836 c-22 -22 -23 -76 -2 -76 8 0 15 2 15 4 0 2 3 12 7 22 5
13 3 16 -10 11 -22 -8 -22 2 -1 18 9 6 15 18 12 25 -3 10 -8 9 -21 -4z"/>
<path d="M3590 6550 c0 -5 5 -10 10 -10 6 0 10 5 10 10 0 6 -4 10 -10 10 -5 0
-10 -4 -10 -10z"/>
<path d="M3566 6504 c-9 -24 0 -28 24 -11 18 13 19 15 5 21 -22 8 -22 8 -29
-10z"/>
<path d="M3266 6061 c-4 -7 -5 -15 -2 -18 9 -9 19 4 14 18 -4 11 -6 11 -12 0z"/>
<path d="M3646 5890 c-37 -41 -42 -50 -28 -50 11 0 75 80 69 86 -2 2 -21 -14
-41 -36z"/>
<path d="M3615 5780 c-3 -5 -1 -10 4 -10 6 0 11 5 11 10 0 6 -2 10 -4 10 -3 0
-8 -4 -11 -10z"/>
<path d="M3650 5738 c0 -9 -12 -31 -27 -49 -25 -30 -26 -32 -5 -17 37 25 56
58 43 71 -8 8 -11 7 -11 -5z"/>
<path d="M3350 5085 c-7 -8 -8 -15 -2 -15 5 0 15 7 22 15 7 8 8 15 2 15 -5 0
-15 -7 -22 -15z"/>
<path d="M3426 4980 c-13 -48 -14 -67 -5 -82 11 -17 21 30 17 78 l-3 39 -9
-35z"/>
<path d="M3465 4910 c3 -5 11 -10 16 -10 6 0 7 5 4 10 -3 6 -11 10 -16 10 -6
0 -7 -4 -4 -10z"/>
<path d="M5070 6411 c0 -6 5 -13 10 -16 6 -3 10 1 10 9 0 9 -4 16 -10 16 -5 0
-10 -4 -10 -9z"/>
<path d="M4763 6449 c-6 -6 -9 -18 -6 -26 4 -11 8 -10 19 4 22 30 12 47 -13
22z"/>
<path d="M4705 6400 c-8 -13 5 -13 25 0 13 8 13 10 -2 10 -9 0 -20 -4 -23 -10z"/>
<path d="M4900 6291 c0 -6 5 -13 10 -16 6 -3 10 1 10 9 0 9 -4 16 -10 16 -5 0
-10 -4 -10 -9z"/>
<path d="M4960 6245 c0 -8 4 -15 10 -15 5 0 7 7 4 15 -4 8 -8 15 -10 15 -2 0
-4 -7 -4 -15z"/>
<path d="M4085 5866 c-11 -8 -16 -19 -12 -30 10 -26 40 -15 44 17 4 30 -4 34
-32 13z"/>
<path d="M4015 5641 c-3 -5 -1 -12 5 -16 5 -3 10 1 10 9 0 18 -6 21 -15 7z"/>
<path d="M4230 4360 c0 -5 5 -10 10 -10 6 0 10 5 10 10 0 6 -4 10 -10 10 -5 0
-10 -4 -10 -10z"/>
<path d="M4348 4062 c-10 -2 -18 -8 -18 -13 0 -13 27 -11 35 2 9 13 4 16 -17
11z"/>
<path d="M6675 4160 c-4 -6 -3 -16 3 -22 6 -6 12 -6 17 2 4 6 3 16 -3 22 -6 6
-12 6 -17 -2z"/>
<path d="M6641 3857 c-13 -21 -12 -21 5 -5 10 10 16 20 13 22 -3 3 -11 -5 -18
-17z"/>
<path d="M6502 3561 c4 -13 18 -16 19 -4 0 4 -5 9 -11 12 -7 2 -11 -2 -8 -8z"/>
<path d="M5598 3488 c3 -11 1 -19 -4 -15 -5 3 -17 -1 -27 -8 -17 -12 -17 -14
4 -29 41 -28 83 26 47 62 -18 18 -27 14 -20 -10z"/>
<path d="M6503 3457 c2 -47 4 -54 18 -46 9 4 20 5 24 1 4 -4 -3 13 -15 38 -13
25 -22 47 -21 48 2 2 0 6 -3 9 -3 3 -4 -20 -3 -50z"/>
<path d="M5830 3470 c0 -5 5 -10 11 -10 5 0 7 5 4 10 -3 6 -8 10 -11 10 -2 0
-4 -4 -4 -10z"/>
<path d="M6555 3310 c3 -5 8 -10 11 -10 2 0 4 5 4 10 0 6 -5 10 -11 10 -5 0
-7 -4 -4 -10z"/>
<path d="M5225 3301 c-3 -5 -1 -12 5 -16 5 -3 10 1 10 9 0 18 -6 21 -15 7z"/>
<path d="M5836 3125 c-3 -9 0 -15 9 -15 9 0 12 6 9 15 -4 8 -7 15 -9 15 -2 0
-5 -7 -9 -15z"/>
<path d="M6240 3119 c0 -5 5 -7 10 -4 6 3 10 8 10 11 0 2 -4 4 -10 4 -5 0 -10
-5 -10 -11z"/>
<path d="M5699 3103 c-1 -7 -3 -17 -4 -23 -1 -5 -3 -14 -4 -20 0 -5 -4 -9 -8
-7 -12 3 -11 -16 1 -35 14 -23 26 -23 26 -1 0 12 9 5 27 -20 14 -20 30 -37 35
-37 14 0 9 11 -12 28 -11 10 -29 42 -39 72 -11 30 -20 49 -22 43z"/>
<path d="M5925 3100 c-3 -5 -1 -10 4 -10 6 0 11 5 11 10 0 6 -2 10 -4 10 -3 0
-8 -4 -11 -10z"/>
<path d="M5876 3055 c4 -8 8 -15 10 -15 2 0 4 7 4 15 0 8 -4 15 -10 15 -5 0
-7 -7 -4 -15z"/>
<path d="M5926 3062 c-3 -6 -1 -14 5 -17 15 -10 25 3 12 16 -7 7 -13 7 -17 1z"/>
<path d="M5525 3049 c-4 -6 -5 -12 -2 -15 2 -3 7 2 10 11 7 17 1 20 -8 4z"/>
<path d="M6115 3040 c3 -5 8 -10 11 -10 2 0 4 5 4 10 0 6 -5 10 -11 10 -5 0
-7 -4 -4 -10z"/>
<path d="M5602 3015 c-6 -14 -7 -25 -2 -25 9 0 25 39 18 46 -3 2 -10 -7 -16
-21z"/>
<path d="M5650 2964 c0 -8 5 -12 10 -9 6 3 10 10 10 16 0 5 -4 9 -10 9 -5 0
-10 -7 -10 -16z"/>
<path d="M6130 2927 c0 -14 5 -29 10 -32 7 -4 8 3 4 22 -9 38 -14 42 -14 10z"/>
<path d="M5403 3995 c-3 -9 -3 -18 0 -21 9 -9 27 6 27 22 0 19 -19 18 -27 -1z"/>
<path d="M4942 3204 c14 -14 21 -15 30 -6 8 8 9 12 1 12 -6 0 -20 3 -30 6 -17
7 -17 6 -1 -12z"/>
<path d="M2636 1461 c-4 -7 -5 -15 -2 -18 9 -9 19 4 14 18 -4 11 -6 11 -12 0z"/>
<path d="M5596 10275 c-3 -8 -1 -15 4 -15 6 0 10 7 10 15 0 8 -2 15 -4 15 -2
0 -6 -7 -10 -15z"/>
<path d="M5540 10211 c0 -9 101 -54 107 -47 6 6 -80 56 -95 56 -7 0 -12 -4
-12 -9z"/>
<path d="M4903 9929 c-18 -12 -30 -25 -27 -30 8 -13 10 -12 39 16 39 40 35 44
-12 14z"/>
<path d="M4155 9390 c-3 -5 -1 -10 4 -10 6 0 11 5 11 10 0 6 -2 10 -4 10 -3 0
-8 -4 -11 -10z"/>
<path d="M4175 9368 c-11 -6 -24 -17 -28 -25 -7 -11 -12 -11 -23 -2 -10 8 -14
8 -14 1 0 -6 -7 -9 -15 -6 -8 4 -15 1 -15 -6 0 -8 12 -10 38 -7 53 8 69 16 75
38 3 10 4 19 4 19 -1 0 -11 -6 -22 -12z"/>
<path d="M3189 8298 c-8 -7 -21 -21 -28 -30 -11 -15 -10 -17 8 -13 40 8 81 55
48 55 -7 0 -20 -6 -28 -12z"/>
<path d="M8309 6120 c-33 -9 -72 -30 -81 -44 -4 -6 8 -25 26 -42 19 -18 39
-49 46 -70 7 -22 25 -63 41 -92 16 -29 29 -60 29 -68 0 -8 6 -14 13 -14 60 1
90 139 50 230 -8 18 -10 26 -12 43 -3 24 -37 58 -62 61 -13 1 -36 -1 -50 -4z"/>
<path d="M8404 5728 c-7 -11 -7 -46 1 -152 3 -45 22 -75 36 -58 12 14 39 93
39 114 0 12 -9 41 -21 65 -21 43 -41 54 -55 31z"/>
<path d="M7961 5686 c-42 -95 -40 -101 71 -217 84 -88 118 -127 118 -135 0 -3
10 -18 21 -32 l22 -27 -7 63 c-4 49 -3 61 7 56 15 -9 -16 28 -61 73 -26 25
-31 36 -24 50 13 25 6 81 -11 101 -8 10 -23 33 -32 52 -37 73 -76 79 -104 16z"/>
<path d="M8171 5243 c-17 -41 -38 -74 -45 -73 -4 1 -12 -1 -19 -3 -8 -3 -5 -7
6 -12 25 -11 67 35 74 80 7 42 -1 45 -16 8z"/>
<path d="M6710 2860 c0 -5 4 -10 9 -10 6 0 13 5 16 10 3 6 -1 10 -9 10 -9 0
-16 -4 -16 -10z"/>
<path d="M7426 2762 c6 -142 16 -261 29 -347 15 -105 31 -229 29 -240 -6 -67
-28 -215 -40 -265 -3 -14 -6 -32 -6 -40 0 -8 -5 -21 -11 -27 -5 -7 -7 -13 -3
-13 3 0 -5 -25 -19 -56 -14 -31 -25 -63 -25 -70 0 -8 -4 -14 -9 -14 -5 0 -11
-10 -15 -23 -3 -13 -24 -56 -46 -96 -22 -41 -40 -78 -40 -82 0 -5 -4 -9 -10
-9 -5 0 -10 -6 -10 -13 0 -16 -187 -301 -201 -305 -5 -2 -9 -8 -9 -13 0 -8 -8
-18 -61 -79 -12 -14 -40 -50 -63 -80 -22 -30 -45 -60 -51 -66 -5 -6 -21 -25
-35 -43 -14 -17 -38 -46 -55 -64 -66 -72 -171 -191 -184 -211 -8 -12 -44 -51
-80 -89 -35 -37 -72 -77 -80 -90 -9 -13 -37 -42 -63 -66 -27 -24 -48 -49 -48
-55 0 -10 -55 -50 -62 -45 -2 1 -35 -18 -73 -42 -39 -24 -78 -48 -87 -54 -9
-5 -35 -23 -58 -39 -31 -22 -44 -26 -52 -18 -20 20 -26 14 -23 -20 2 -20 -3
-40 -13 -51 -8 -9 -12 -20 -8 -25 4 -4 1200 -9 2657 -10 l2649 -4 0 269 c0
209 -3 270 -12 270 -47 3 -105 16 -150 34 -29 12 -125 45 -213 73 -88 29 -198
67 -245 83 -47 17 -125 45 -175 63 -250 88 -269 98 -416 214 -66 52 -183 126
-209 132 -3 0 -12 3 -20 7 -66 26 -241 79 -265 80 -16 1 -31 8 -31 15 -1 6 -2
15 -3 20 -3 20 -134 83 -201 97 -28 6 -155 48 -190 64 -19 8 -37 15 -40 16
-13 2 -78 40 -106 61 -17 13 -34 24 -37 24 -7 0 -47 18 -237 107 -162 76 -201
93 -210 93 -5 0 -25 9 -45 20 -20 11 -40 20 -46 20 -6 0 -25 11 -42 24 -26 19
-72 37 -97 38 -23 1 -42 28 -60 88 -27 87 -53 122 -207 276 -128 128 -177 193
-239 314 -50 98 -96 160 -186 251 -147 147 -149 147 -142 11z m2034 -1557
c-14 -16 -50 -21 -50 -6 0 9 52 31 59 25 2 -2 -2 -10 -9 -19z m-2925 -845
c-10 -11 -28 -20 -39 -20 -17 1 -14 5 14 20 45 24 47 24 25 0z m-67 -87 c-3
-29 -14 -43 -35 -43 -9 0 -9 5 0 23 30 55 40 61 35 20z m37 -3 c-3 -5 -11 -10
-16 -10 -6 0 -7 5 -4 10 3 6 11 10 16 10 6 0 7 -4 4 -10z m-107 -12 c-19 -18
-59 -40 -63 -36 -10 10 39 46 63 47 11 1 11 -1 0 -11z m-243 -168 c-3 -5 -11
-10 -16 -10 -6 0 -7 5 -4 10 3 6 11 10 16 10 6 0 7 -4 4 -10z m-65 -50 c0 -5
-4 -10 -10 -10 -5 0 -10 5 -10 10 0 6 5 10 10 10 6 0 10 -4 10 -10z"/>
<path d="M6589 2804 c-1 -2 -2 -9 -3 -15 0 -6 -10 -17 -20 -25 -11 -7 -17 -16
-14 -19 2 -3 22 10 43 28 33 29 35 33 16 34 -11 1 -22 0 -22 -3z"/>
<path d="M6650 2796 c0 -10 28 -13 41 -5 10 6 7 9 -13 9 -16 0 -28 -2 -28 -4z"/>
<path d="M6460 2534 c0 -8 5 -12 10 -9 6 4 8 11 5 16 -9 14 -15 11 -15 -7z"/>
<path d="M6305 2506 c-16 -15 -23 -26 -18 -26 16 0 59 37 52 45 -4 3 -19 -5
-34 -19z"/>
<path d="M5370 1900 c0 -5 5 -10 11 -10 5 0 7 5 4 10 -3 6 -8 10 -11 10 -2 0
-4 -4 -4 -10z"/>
<path d="M5580 1240 c0 -5 7 -10 15 -10 8 0 15 5 15 10 0 6 -7 10 -15 10 -8 0
-15 -4 -15 -10z"/>
<path d="M4655 1230 c-3 -5 1 -10 9 -10 9 0 16 5 16 10 0 6 -4 10 -9 10 -6 0
-13 -4 -16 -10z"/>
<path d="M4690 1064 c0 -8 5 -12 10 -9 6 3 10 10 10 16 0 5 -4 9 -10 9 -5 0
-10 -7 -10 -16z"/>
<path d="M4950 1066 c0 -8 5 -18 10 -21 6 -3 10 1 10 9 0 8 -4 18 -10 21 -5 3
-10 -1 -10 -9z"/>
<path d="M5090 1020 c0 -5 5 -10 10 -10 6 0 10 5 10 10 0 6 -4 10 -10 10 -5 0
-10 -4 -10 -10z"/>
<path d="M4787 1007 c-3 -9 -2 -19 4 -23 15 -9 18 -2 9 20 -6 17 -7 18 -13 3z"/>
<path d="M5046 995 c-4 -17 -11 -23 -23 -18 -19 7 -14 -4 26 -54 26 -34 34
-60 21 -68 -5 -3 -7 -12 -3 -20 3 -9 -1 -15 -11 -15 -27 0 -18 -15 24 -39 22
-12 40 -27 40 -32 0 -6 -4 -7 -10 -4 -5 3 -10 2 -10 -4 0 -5 15 -13 33 -17 17
-3 43 -15 56 -25 13 -10 28 -16 34 -12 6 4 8 0 5 -8 -5 -12 3 -15 35 -15 36 1
42 4 54 34 8 20 9 31 3 27 -14 -9 -66 48 -62 68 2 8 -6 21 -18 27 -15 8 -19
17 -15 31 4 12 -1 29 -14 45 -12 15 -21 32 -21 38 0 7 -14 25 -31 42 -30 29
-31 29 -45 9 -15 -20 -16 -20 -29 -1 -8 10 -12 23 -9 27 3 5 -1 9 -9 9 -8 0
-18 -11 -21 -25z m194 -195 c0 -5 -5 -10 -11 -10 -5 0 -7 5 -4 10 3 6 8 10 11
10 2 0 4 -4 4 -10z"/>
<path d="M4797 910 c-4 -16 24 -60 39 -60 10 0 -6 52 -20 66 -12 11 -15 10
-19 -6z"/>
<path d="M5022 910 c0 -14 2 -19 5 -12 2 6 2 18 0 25 -3 6 -5 1 -5 -13z"/>
<path d="M818 882 c-4 -10 -87 -49 -113 -54 -11 -1 -33 -12 -50 -24 -16 -12
-50 -30 -75 -42 -89 -41 -108 -77 -28 -52 24 8 45 14 48 15 36 8 50 19 50 40
0 26 16 43 22 24 3 -9 9 -9 23 -1 38 21 152 62 173 62 12 0 22 5 22 11 0 5 -4
8 -9 4 -5 -3 -16 2 -24 10 -17 16 -33 19 -39 7z"/>
<path d="M480 680 c0 -5 5 -10 11 -10 5 0 7 5 4 10 -3 6 -8 10 -11 10 -2 0 -4
-4 -4 -10z"/>
<path d="M5342 666 c1 -15 7 -22 15 -19 9 4 10 10 2 24 -13 26 -19 24 -17 -5z"/>
<path d="M5408 623 c7 -3 16 -2 19 1 4 3 -2 6 -13 5 -11 0 -14 -3 -6 -6z"/>
</g>
</svg>
